<svg xmlns="http://www.w3.org/2000/svg" width="64" height="64" viewBox="0 0 256 256" fill="none" id="my-svg">
  <defs>
    <linearGradient id="gradient1">
      <stop class="stop1" offset="0%" stop-color="#8f66ff"></stop>
      <stop class="stop2" offset="100%" stop-color="#3d12ff"></stop>
    </linearGradient>
  </defs>
  <rect id="backgr" width="256" height="256" fill="#0a0a0a" rx="60"></rect>
  <g id="group" transform="translate(0,0) scale(1)">
    <path d="M224.000 128.000C224.000 181.020 181.020 224.000 128.000 224.000C74.981 224.000 32.000 181.020 32.000 128.000C32.000 74.981 74.981 32.000 128.000 32.000C181.020 32.000 224.000 74.981 224.000 128.000Z" stroke="#1300ff" stroke-width="14" stroke-linecap="round" stroke-linejoin="round" id="primary"></path>
    <path d="M106.667 128.000H138.667C150.449 128.000 160.000 118.449 160.000 106.667C160.000 94.885 150.449 85.333 138.667 85.333L106.667 85.333M106.667 128.000V85.333M106.667 128.000L106.667 170.667M106.667 128.000H149.333C161.116 128.000 170.667 137.551 170.667 149.333C170.667 161.116 161.116 170.667 149.333 170.667H106.667M106.667 85.333L96.000 85.333M106.667 170.667H96.000M128.000 85.333V64.000M128.000 192.000V170.667" stroke="#00ff11" stroke-width="14" stroke-linecap="round" stroke-linejoin="round" id="secondary"></path>
  </g>
</svg>