<svg xmlns="http://www.w3.org/2000/svg" width="64" height="64" viewBox="0 0 256 256" fill="none" id="my-svg">
  <defs>
    <linearGradient id="gradient1">
      <stop class="stop1" offset="0%" stop-color="#8f66ff"></stop>
      <stop class="stop2" offset="100%" stop-color="#3d12ff"></stop>
    </linearGradient>
  </defs>
  <rect id="backgr" width="256" height="256" fill="#ffffff" rx="60"></rect>
  <g id="group" transform="translate(0,0) scale(1)">
    <path d="M53.333 32.000H202.667C214.449 32.000 224.000 41.551 224.000 53.333V74.667V202.667C224.000 214.449 214.449 224.000 202.667 224.000H96.000H53.333C41.551 224.000 32.000 214.449 32.000 202.667V74.667V53.333C32.000 41.551 41.551 32.000 53.333 32.000Z" fill="#00ff11" stroke-width="14" id="filltone" stroke="#1300ff" stroke-linecap="round" stroke-linejoin="round"></path>
    <path d="M32.000 74.667V202.667C32.000 214.449 41.551 224.000 53.333 224.000L96.000 224.000M32.000 74.667L32.000 53.333C32.000 41.551 41.551 32.000 53.333 32.000H202.667C214.449 32.000 224.000 41.551 224.000 53.333V74.667M32.000 74.667H96.000M224.000 74.667V202.667C224.000 214.449 214.449 224.000 202.667 224.000H96.000M224.000 74.667H96.000M96.000 74.667V224.000" stroke="#1300ff" stroke-width="14" stroke-linecap="round" stroke-linejoin="round" id="stroketone"></path>
  </g>
</svg>