<svg xmlns="http://www.w3.org/2000/svg" width="64" height="64" viewBox="0 0 256 256" fill="none" id="my-svg">
  <defs>
    <linearGradient id="gradient1">
      <stop class="stop1" offset="0%" stop-color="#8f66ff"></stop>
      <stop class="stop2" offset="100%" stop-color="#3d12ff"></stop>
    </linearGradient>
  </defs>
  <rect id="backgr" width="256" height="256" fill="#ffffff" rx="60"></rect>
  <g id="group" transform="translate(0,0) scale(1)">
    <path d="M42.667 202.667C42.667 190.884 52.218 181.333 64.000 181.333C75.782 181.333 85.333 190.884 85.333 202.667C85.333 214.449 75.782 224.000 64.000 224.000C52.218 224.000 42.667 214.449 42.667 202.667Z" fill="#00ff11" stroke-width="14" id="filltone" stroke="#1300ff" stroke-linecap="round" stroke-linejoin="round"></path>
    <path d="M42.667 53.333C42.667 41.551 52.218 32.000 64.000 32.000C75.782 32.000 85.333 41.551 85.333 53.333C85.333 65.115 75.782 74.667 64.000 74.667C52.218 74.667 42.667 65.115 42.667 53.333Z" fill="#00ff11" stroke-width="14" id="filltone" stroke="#1300ff" stroke-linecap="round" stroke-linejoin="round"></path>
    <path d="M42.667 128.000C42.667 116.218 52.218 106.667 64.000 106.667C75.782 106.667 85.333 116.218 85.333 128.000C85.333 139.782 75.782 149.333 64.000 149.333C52.218 149.333 42.667 139.782 42.667 128.000Z" fill="#00ff11" stroke-width="14" id="filltone" stroke="#1300ff" stroke-linecap="round" stroke-linejoin="round"></path>
    <path d="M181.333 53.333C181.333 41.551 190.884 32.000 202.667 32.000C214.449 32.000 224.000 41.551 224.000 53.333C224.000 65.115 214.449 74.667 202.667 74.667C190.884 74.667 181.333 65.115 181.333 53.333Z" fill="#00ff11" stroke-width="14" id="filltone" stroke="#1300ff" stroke-linecap="round" stroke-linejoin="round"></path>
    <path d="M42.667 202.667C42.667 190.884 52.218 181.333 64.000 181.333C75.782 181.333 85.333 190.884 85.333 202.667M42.667 202.667C42.667 214.449 52.218 224.000 64.000 224.000C75.782 224.000 85.333 214.449 85.333 202.667M42.667 202.667H32.000M85.333 202.667C117.333 202.667 138.667 180.660 138.667 148.660V105.994L138.667 53.333M138.667 128.000H85.333M42.667 53.333C42.667 41.551 52.218 32.000 64.000 32.000C75.782 32.000 85.333 41.551 85.333 53.333M42.667 53.333C42.667 65.115 52.218 74.667 64.000 74.667C75.782 74.667 85.333 65.115 85.333 53.333M42.667 53.333H32.000M85.333 53.333H138.667M85.333 128.000C85.333 116.218 75.782 106.667 64.000 106.667C52.218 106.667 42.667 116.218 42.667 128.000M85.333 128.000C85.333 139.782 75.782 149.333 64.000 149.333C52.218 149.333 42.667 139.782 42.667 128.000M42.667 128.000H32.000M181.333 53.333C181.333 41.551 190.884 32.000 202.667 32.000C214.449 32.000 224.000 41.551 224.000 53.333C224.000 65.115 214.449 74.667 202.667 74.667C190.884 74.667 181.333 65.115 181.333 53.333ZM181.333 53.333H138.667" stroke="#1300ff" stroke-width="14" stroke-linecap="round" stroke-linejoin="round" id="stroketone"></path>
  </g>
</svg>