<svg xmlns="http://www.w3.org/2000/svg" width="64" height="64" viewBox="0 0 256 256" fill="none" id="my-svg">
  <defs>
    <linearGradient id="gradient1">
      <stop class="stop1" offset="0%" stop-color="#8f66ff"></stop>
      <stop class="stop2" offset="100%" stop-color="#3d12ff"></stop>
    </linearGradient>
  </defs>
  <rect id="backgr" width="256" height="256" fill="#ffffff" rx="60"></rect>
  <g id="group" transform="translate(0,0) scale(1)">
    <path d="M53.333 32.000C41.551 32.000 32.000 41.551 32.000 53.333V202.667C32.000 214.449 41.551 224.000 53.333 224.000H170.667C175.916 224.000 180.723 222.103 184.439 218.959L192.000 224.000L224.000 202.667V160.000C224.000 160.000 205.172 149.333 192.000 149.333V53.333C192.000 41.551 182.449 32.000 170.667 32.000H53.333Z" fill="#00ff11" stroke-width="14" id="filltone" stroke="#1300ff" stroke-linecap="round" stroke-linejoin="round"></path>
    <path d="M192.000 117.333V53.333C192.000 41.551 182.449 32.000 170.667 32.000H53.333C41.551 32.000 32.000 41.551 32.000 53.333V202.667C32.000 214.449 41.551 224.000 53.333 224.000H128.000M160.000 160.000V202.667L192.000 224.000L224.000 202.667V160.000C224.000 160.000 205.172 149.333 192.000 149.333C178.828 149.333 160.000 160.000 160.000 160.000Z" stroke="#1300ff" stroke-width="14" stroke-linecap="round" stroke-linejoin="round" id="stroketone"></path>
  </g>
</svg>