<svg xmlns="http://www.w3.org/2000/svg" width="64" height="64" viewBox="0 0 256 256" fill="none" id="my-svg">
  <defs>
    <linearGradient id="gradient1">
      <stop class="stop1" offset="0%" stop-color="#8f66ff"></stop>
      <stop class="stop2" offset="100%" stop-color="#3d12ff"></stop>
    </linearGradient>
  </defs>
  <rect id="backgr" width="256" height="256" fill="#ffffff" rx="60"></rect>
  <g id="group" transform="translate(0,0) scale(1)">
    <path d="M133.333 202.667C133.333 214.449 123.782 224.000 112.000 224.000C100.218 224.000 90.667 214.449 90.667 202.667C90.667 190.884 100.218 181.333 112.000 181.333C123.782 181.333 133.333 190.884 133.333 202.667Z" fill="#00ff11" stroke-width="14" id="filltone" stroke="#1300ff" stroke-linecap="round" stroke-linejoin="round"></path>
    <path d="M133.333 74.667C133.333 86.449 123.782 96.000 112.000 96.000C100.218 96.000 90.667 86.449 90.667 74.667C90.667 70.385 91.928 66.399 94.099 63.057C97.903 57.204 104.499 53.333 112.000 53.333C123.782 53.333 133.333 62.885 133.333 74.667Z" fill="#00ff11" stroke-width="14" id="filltone" stroke="#1300ff" stroke-linecap="round" stroke-linejoin="round"></path>
    <path d="M224.672 149.333C224.672 161.116 215.121 170.667 203.339 170.667C191.556 170.667 182.005 161.116 182.005 149.333C182.005 137.551 191.556 128.000 203.339 128.000C215.121 128.000 224.672 137.551 224.672 149.333Z" fill="#00ff11" stroke-width="14" id="filltone" stroke="#1300ff" stroke-linecap="round" stroke-linejoin="round"></path>
    <path d="M112.000 181.333C100.218 181.333 90.667 190.884 90.667 202.667C90.667 214.449 100.218 224.000 112.000 224.000C123.782 224.000 133.333 214.449 133.333 202.667C133.333 190.884 123.782 181.333 112.000 181.333ZM112.000 181.333L112.000 96.000M112.000 96.000C123.782 96.000 133.333 86.449 133.333 74.667C133.333 62.885 123.782 53.333 112.000 53.333C104.499 53.333 97.903 57.204 94.099 63.057M112.000 96.000C100.218 96.000 90.667 86.449 90.667 74.667C90.667 70.385 91.928 66.399 94.099 63.057M188.033 134.473L128.000 88.778M53.333 32.000L94.099 63.057M224.672 149.333C224.672 161.116 215.121 170.667 203.339 170.667C191.556 170.667 182.005 161.116 182.005 149.333C182.005 137.551 191.556 128.000 203.339 128.000C215.121 128.000 224.672 137.551 224.672 149.333Z" stroke="#1300ff" stroke-width="14" stroke-linecap="round" stroke-linejoin="round" id="stroketone"></path>
  </g>
</svg>