<svg xmlns="http://www.w3.org/2000/svg" width="64" height="64" viewBox="0 0 256 256" fill="none" id="my-svg">
  <defs>
    <linearGradient id="gradient1">
      <stop class="stop1" offset="0%" stop-color="#8f66ff"></stop>
      <stop class="stop2" offset="100%" stop-color="#3d12ff"></stop>
    </linearGradient>
  </defs>
  <rect id="backgr" width="256" height="256" fill="#0a0a0a" rx="60"></rect>
  <g id="group" transform="translate(0,0) scale(1)">
    <path d="M140.666 107.294H154.667C165.113 107.294 174.557 111.620 181.333 118.594M94.001 107.294H80.000C59.381 107.294 42.667 124.149 42.667 144.941V173.177C42.667 183.572 51.024 192.000 61.333 192.000H128.000M154.667 76.582C154.667 101.204 133.926 116.706 117.333 116.706C100.741 116.706 80.000 101.204 80.000 76.582C80.000 51.960 94.424 32.000 117.333 32.000C140.243 32.000 154.667 51.960 154.667 76.582Z" stroke="#1300ff" stroke-width="14" stroke-linecap="round" stroke-linejoin="round" id="primary"></path>
    <path d="M160.000 160.000C160.000 160.000 178.828 149.333 192.000 149.333C205.172 149.333 224.000 160.000 224.000 160.000V202.667L192.000 224.000L160.000 202.667V160.000Z" stroke="#00ff11" stroke-width="14" stroke-linecap="round" stroke-linejoin="round" id="secondary"></path>
  </g>
</svg>