<svg xmlns="http://www.w3.org/2000/svg" width="64" height="64" viewBox="0 0 256 256" fill="none" id="my-svg">
  <defs>
    <linearGradient id="gradient1">
      <stop class="stop1" offset="0%" stop-color="#8f66ff"></stop>
      <stop class="stop2" offset="100%" stop-color="#3d12ff"></stop>
    </linearGradient>
  </defs>
  <rect id="backgr" width="256" height="256" fill="#ffffff" rx="60"></rect>
  <g id="group" transform="translate(0,0) scale(1)">
    <path d="M138.667 42.667V85.333C138.667 91.224 143.442 96.000 149.333 96.000H160.000V128.000L192.000 96.000H213.333C219.225 96.000 224.000 91.224 224.000 85.333V42.667C224.000 36.776 219.225 32.000 213.333 32.000H149.333C143.442 32.000 138.667 36.776 138.667 42.667Z" fill="#00ff11" stroke-width="14" id="filltone" stroke="#1300ff" stroke-linecap="round" stroke-linejoin="round"></path>
    <path d="M120.000 131.665C120.000 142.146 115.387 150.562 109.105 156.142L120.000 156.236C136.201 156.236 149.333 169.719 149.333 186.353V208.941C149.333 217.258 142.767 224.000 134.667 224.000H46.667C38.567 224.000 32.000 217.258 32.000 208.941V186.353C32.000 169.719 45.133 155.733 61.333 155.733L71.875 155.824C65.775 150.243 61.333 141.949 61.333 131.665C61.333 111.968 72.666 96.000 90.667 96.000C108.667 96.000 120.000 111.968 120.000 131.665Z" fill="#00ff11" stroke-width="14" id="filltone" stroke="#1300ff" stroke-linecap="round" stroke-linejoin="round"></path>
    <path d="M103.757 160.000H117.333C133.534 160.000 149.333 169.719 149.333 186.353V208.941C149.333 217.258 142.767 224.000 134.667 224.000H46.667C38.567 224.000 32.000 217.258 32.000 208.941V186.353C32.000 169.719 47.800 160.000 64.000 160.000H77.576M120.000 131.666C120.000 151.363 103.704 163.764 90.667 163.764C77.630 163.764 61.333 151.363 61.333 131.666C61.333 111.968 72.666 96.000 90.667 96.000C108.667 96.000 120.000 111.968 120.000 131.666ZM149.333 32.000H213.333C220.583 32.000 224.000 35.597 224.000 42.667V85.333C224.000 92.403 220.583 96.000 213.333 96.000H192.000L160.000 128.000V96.000H149.333C142.083 96.000 138.667 92.403 138.667 85.333V42.667C138.667 35.597 142.083 32.000 149.333 32.000Z" stroke="#1300ff" stroke-width="14" stroke-linecap="round" stroke-linejoin="round" id="stroketone"></path>
  </g>
</svg>