<svg xmlns="http://www.w3.org/2000/svg" width="64" height="64" viewBox="0 0 256 256" fill="none" id="my-svg">
  <defs>
    <linearGradient id="gradient1">
      <stop class="stop1" offset="0%" stop-color="#8f66ff"></stop>
      <stop class="stop2" offset="100%" stop-color="#3d12ff"></stop>
    </linearGradient>
  </defs>
  <rect id="backgr" width="256" height="256" fill="#0a0a0a" rx="60"></rect>
  <g id="group" transform="translate(0,0) scale(1)">
    <path d="M129.999 117.961H144.000C164.619 117.961 181.333 134.816 181.333 155.607M83.334 117.961H69.333C48.715 117.961 32.000 134.816 32.000 155.607V183.843C32.000 194.239 40.357 202.667 50.667 202.667H138.667M144.000 87.249C144.000 111.871 123.260 127.373 106.667 127.373C90.074 127.373 69.333 111.871 69.333 87.249C69.333 62.627 83.757 42.667 106.667 42.667C129.577 42.667 144.000 62.627 144.000 87.249Z" stroke="#1300ff" stroke-width="14" stroke-linecap="round" stroke-linejoin="round" id="primary"></path>
    <path d="M170.667 192.000L192.000 213.333L224.000 160.000" stroke="#00ff11" stroke-width="14" stroke-linecap="round" stroke-linejoin="round" id="secondary"></path>
  </g>
</svg>