<svg xmlns="http://www.w3.org/2000/svg" width="64" height="64" viewBox="0 0 256 256" fill="none" id="my-svg">
  <defs>
    <linearGradient id="gradient1">
      <stop class="stop1" offset="0%" stop-color="#8f66ff"></stop>
      <stop class="stop2" offset="100%" stop-color="#3d12ff"></stop>
    </linearGradient>
  </defs>
  <rect id="backgr" width="256" height="256" fill="#ffffff" rx="60"></rect>
  <g id="group" transform="translate(0,0) scale(1)">
    <path d="M154.667 76.582C154.667 89.367 149.074 99.693 141.375 106.667H154.667C175.285 106.667 192.000 124.149 192.000 144.942V149.333C205.172 149.333 224.000 160.000 224.000 160.000V202.667L192.000 224.000L160.000 202.667V192.000H61.333C51.024 192.000 42.667 183.572 42.667 173.177V144.942C42.667 124.149 59.381 106.667 80.000 106.667H93.292C85.592 99.693 80.000 89.367 80.000 76.582C80.000 51.960 94.424 32.000 117.333 32.000C140.243 32.000 154.667 51.960 154.667 76.582Z" fill="#00ff11" stroke-width="14" id="filltone" stroke="#1300ff" stroke-linecap="round" stroke-linejoin="round"></path>
    <path d="M140.666 107.294H154.667C165.113 107.294 174.557 111.620 181.333 118.594M94.001 107.294H80.000C59.381 107.294 42.667 124.149 42.667 144.941V173.177C42.667 183.572 51.024 192.000 61.333 192.000H128.000M160.000 160.000V202.667L192.000 224.000L224.000 202.667V160.000C224.000 160.000 205.172 149.333 192.000 149.333C178.828 149.333 160.000 160.000 160.000 160.000ZM154.667 76.582C154.667 101.204 133.926 116.706 117.333 116.706C100.741 116.706 80.000 101.204 80.000 76.582C80.000 51.960 94.424 32.000 117.333 32.000C140.243 32.000 154.667 51.960 154.667 76.582Z" stroke="#1300ff" stroke-width="14" stroke-linecap="round" stroke-linejoin="round" id="stroketone"></path>
  </g>
</svg>