<svg xmlns="http://www.w3.org/2000/svg" width="64" height="64" viewBox="0 0 256 256" fill="none" id="my-svg">
  <defs>
    <linearGradient id="gradient1">
      <stop class="stop1" offset="0%" stop-color="#8f66ff"></stop>
      <stop class="stop2" offset="100%" stop-color="#3d12ff"></stop>
    </linearGradient>
  </defs>
  <rect id="backgr" width="256" height="256" fill="#ffffff" rx="60"></rect>
  <g id="group" transform="translate(0,0) scale(1)">
    <path d="M202.667 128.000C202.667 169.237 169.237 202.667 128.000 202.667C86.763 202.667 53.333 169.237 53.333 128.000C53.333 86.763 86.763 53.333 128.000 53.333C169.237 53.333 202.667 86.763 202.667 128.000Z" fill="#00ff11" stroke-width="14" id="filltone" stroke="#1300ff" stroke-linecap="round" stroke-linejoin="round"></path>
    <path d="M170.667 144.000C170.667 152.836 163.503 160.000 154.667 160.000C145.830 160.000 138.667 152.836 138.667 144.000C138.667 135.164 145.830 128.000 154.667 128.000C163.503 128.000 170.667 135.164 170.667 144.000Z" fill="#00ff11" stroke-width="14" id="filltone" stroke="#1300ff" stroke-linecap="round" stroke-linejoin="round"></path>
    <path d="M117.333 112.000C117.333 120.836 110.170 128.000 101.333 128.000C92.497 128.000 85.333 120.836 85.333 112.000C85.333 103.163 92.497 96.000 101.333 96.000C110.170 96.000 117.333 103.163 117.333 112.000Z" fill="#00ff11" stroke-width="14" id="filltone" stroke="#1300ff" stroke-linecap="round" stroke-linejoin="round"></path>
    <path d="M202.667 128.000C202.667 169.237 169.237 202.667 128.000 202.667M202.667 128.000C202.667 86.763 169.237 53.333 128.000 53.333M202.667 128.000H224.000M128.000 202.667C86.763 202.667 53.333 169.237 53.333 128.000M128.000 202.667V224.000M53.333 128.000C53.333 86.763 86.763 53.333 128.000 53.333M53.333 128.000H32.000M128.000 53.333V32.000M180.797 75.203L195.882 60.118M60.118 195.883L75.203 180.798M75.203 75.203L60.118 60.118M195.883 195.883L180.798 180.798M170.667 144.000C170.667 152.836 163.503 160.000 154.667 160.000C145.830 160.000 138.667 152.836 138.667 144.000C138.667 135.164 145.830 128.000 154.667 128.000C163.503 128.000 170.667 135.164 170.667 144.000ZM117.333 112.000C117.333 120.836 110.170 128.000 101.333 128.000C92.497 128.000 85.333 120.836 85.333 112.000C85.333 103.163 92.497 96.000 101.333 96.000C110.170 96.000 117.333 103.163 117.333 112.000Z" stroke="#1300ff" stroke-width="14" stroke-linecap="round" stroke-linejoin="round" id="stroketone"></path>
  </g>
</svg>