<svg xmlns="http://www.w3.org/2000/svg" width="64" height="64" viewBox="0 0 256 256" fill="none" id="my-svg">
  <defs>
    <linearGradient id="gradient1">
      <stop class="stop1" offset="0%" stop-color="#8f66ff"></stop>
      <stop class="stop2" offset="100%" stop-color="#3d12ff"></stop>
    </linearGradient>
  </defs>
  <rect id="backgr" width="256" height="256" fill="#0a0a0a" rx="60"></rect>
  <g id="group" transform="translate(0,0) scale(1)">
    <path d="M147.925 105.653a34.229 34.229 0 1 1 66.816 0L202.667 160h-42.667l-12.075 -54.347Z M41.259 73.653a34.229 34.229 0 1 1 66.816 0L96 128H53.333L41.259 73.653Z" stroke="#1300ff" stroke-width="14" stroke-linecap="round" stroke-linejoin="round" id="primary"></path>
    <path d="M53.333 170.667a21.333 21.333 0 1 0 42.667 0v-10.667H53.333v10.667Z M160 202.667a21.333 21.333 0 0 0 42.667 0v-10.667h-42.667v10.667Z" stroke="#00ff11" stroke-width="14" stroke-linecap="round" stroke-linejoin="round" id="secondary"></path>
  </g>
</svg>