<svg xmlns="http://www.w3.org/2000/svg" width="64" height="64" viewBox="0 0 256 256" fill="none" id="my-svg">
  <defs>
    <linearGradient id="gradient1">
      <stop class="stop1" offset="0%" stop-color="#8f66ff"></stop>
      <stop class="stop2" offset="100%" stop-color="#3d12ff"></stop>
    </linearGradient>
  </defs>
  <rect id="backgr" width="256" height="256" fill="#0a0a0a" rx="60"></rect>
  <g id="group" transform="translate(0,0) scale(1)">
    <path d="M117.333 96.000V128.000M138.667 160.000V181.333M202.667 106.667V117.333M53.333 106.667V117.333M202.667 74.667V58.667C202.667 43.939 190.727 32.000 176.000 32.000C161.273 32.000 149.333 43.939 149.333 58.667V64.000M53.333 74.667V58.667C53.333 43.939 65.272 32.000 80.000 32.000C94.728 32.000 106.667 43.939 106.667 58.667V64.000" stroke="#00ff11" stroke-width="14" stroke-linecap="round" stroke-linejoin="round" id="secondary"></path>
    <path d="M85.333 96.000H170.667C170.667 96.000 170.882 143.129 181.333 170.667C191.991 198.751 224.000 224.000 224.000 224.000H32.000C32.000 224.000 64.008 198.751 74.667 170.667C85.118 143.129 85.333 96.000 85.333 96.000Z" stroke="#1300ff" stroke-width="14" stroke-linecap="round" stroke-linejoin="round" id="primary"></path>
  </g>
</svg>