<svg xmlns="http://www.w3.org/2000/svg" xmlns:xlink="http://www.w3.org/1999/xlink" version="1.1" width="256" height="256" viewBox="0 0 256 256" xml:space="preserve">

<defs>
</defs>
<g style="stroke: none; stroke-width: 0; stroke-dasharray: none; stroke-linecap: butt; stroke-linejoin: miter; stroke-miterlimit: 10; fill: none; fill-rule: nonzero; opacity: 1;" transform="translate(0 -2.842170943040401e-14) scale(2.81 2.81)" >
	<path d="M 71.326 90 H 18.674 C 8.361 90 0 81.639 0 71.326 V 18.674 C 0 8.361 8.361 0 18.674 0 h 52.652 C 81.639 0 90 8.361 90 18.674 v 52.652 C 90 81.639 81.639 90 71.326 90 z" style="stroke: none; stroke-width: 1; stroke-dasharray: none; stroke-linecap: butt; stroke-linejoin: miter; stroke-miterlimit: 10; fill: rgb(0,0,0); fill-rule: nonzero; opacity: 1;" transform=" matrix(1 0 0 1 0 0) " stroke-linecap="round" />
</g>
<g style="stroke: none; stroke-width: 0; stroke-dasharray: none; stroke-linecap: butt; stroke-linejoin: miter; stroke-miterlimit: 10; fill: none; fill-rule: nonzero; opacity: 1;" transform="translate(41.722334004024134 41.722334004024106) scale(1.92 1.92)" >
	<path d="M 77.436 44.684 c -0.149 0 -0.299 -0.034 -0.438 -0.101 l -11.564 -5.62 c -0.344 -0.167 -0.563 -0.517 -0.563 -0.899 s 0.219 -0.732 0.563 -0.899 l 11.564 -5.62 c 0.277 -0.134 0.598 -0.134 0.875 0 l 11.564 5.62 C 89.781 37.332 90 37.681 90 38.063 s -0.219 0.732 -0.563 0.899 l -11.564 5.62 C 77.734 44.65 77.585 44.684 77.436 44.684 z M 68.159 38.063 l 9.276 4.508 l 9.276 -4.508 l -9.276 -4.508 L 68.159 38.063 z" style="stroke: none; stroke-width: 1; stroke-dasharray: none; stroke-linecap: butt; stroke-linejoin: miter; stroke-miterlimit: 10; fill: rgb(19,0,255); fill-rule: nonzero; opacity: 1;" transform=" matrix(1 0 0 1 0 0) " stroke-linecap="round" />
	<path d="M 77.436 58.474 c -0.149 0 -0.299 -0.033 -0.438 -0.101 l -11.564 -5.62 c -0.344 -0.167 -0.563 -0.517 -0.563 -0.899 v -13.79 c 0 -0.345 0.178 -0.665 0.47 -0.848 c 0.291 -0.183 0.658 -0.203 0.968 -0.052 l 11.127 5.408 l 11.127 -5.408 c 0.311 -0.15 0.676 -0.131 0.968 0.052 c 0.292 0.183 0.47 0.503 0.47 0.848 v 13.79 c 0 0.383 -0.219 0.732 -0.563 0.899 l -11.564 5.62 C 77.734 58.44 77.585 58.474 77.436 58.474 z M 66.871 51.228 l 10.564 5.134 L 88 51.228 V 39.661 l -10.127 4.922 c -0.277 0.134 -0.598 0.134 -0.875 0 l -10.127 -4.922 V 51.228 z" style="stroke: none; stroke-width: 1; stroke-dasharray: none; stroke-linecap: butt; stroke-linejoin: miter; stroke-miterlimit: 10; fill: rgb(19,0,255); fill-rule: nonzero; opacity: 1;" transform=" matrix(1 0 0 1 0 0) " stroke-linecap="round" />
	<path d="M 77.436 58.474 c -0.553 0 -1 -0.447 -1 -1 v -13.79 c 0 -0.552 0.447 -1 1 -1 s 1 0.448 1 1 v 13.79 C 78.436 58.026 77.988 58.474 77.436 58.474 z" style="stroke: none; stroke-width: 1; stroke-dasharray: none; stroke-linecap: butt; stroke-linejoin: miter; stroke-miterlimit: 10; fill: rgb(19,0,255); fill-rule: nonzero; opacity: 1;" transform=" matrix(1 0 0 1 0 0) " stroke-linecap="round" />
	<path d="M 12.564 44.684 c -0.149 0 -0.299 -0.034 -0.437 -0.101 l -11.564 -5.62 C 0.219 38.795 0 38.446 0 38.063 s 0.219 -0.732 0.563 -0.899 l 11.564 -5.62 c 0.275 -0.134 0.599 -0.134 0.874 0 l 11.565 5.62 c 0.344 0.167 0.563 0.517 0.563 0.899 s -0.219 0.732 -0.563 0.899 l -11.565 5.62 C 12.864 44.65 12.714 44.684 12.564 44.684 z M 3.288 38.063 l 9.277 4.508 l 9.277 -4.508 l -9.277 -4.508 L 3.288 38.063 z" style="stroke: none; stroke-width: 1; stroke-dasharray: none; stroke-linecap: butt; stroke-linejoin: miter; stroke-miterlimit: 10; fill: rgb(19,0,255); fill-rule: nonzero; opacity: 1;" transform=" matrix(1 0 0 1 0 0) " stroke-linecap="round" />
	<path d="M 12.564 58.474 c -0.149 0 -0.299 -0.033 -0.437 -0.101 l -11.564 -5.62 C 0.219 52.586 0 52.236 0 51.854 v -13.79 c 0 -0.345 0.177 -0.665 0.47 -0.848 c 0.293 -0.183 0.659 -0.203 0.967 -0.052 l 11.127 5.408 l 11.128 -5.408 c 0.309 -0.151 0.674 -0.131 0.968 0.052 c 0.292 0.183 0.469 0.503 0.469 0.848 v 13.79 c 0 0.383 -0.219 0.732 -0.563 0.899 l -11.565 5.62 C 12.864 58.44 12.714 58.474 12.564 58.474 z M 2 51.228 l 10.564 5.134 l 10.565 -5.134 V 39.661 l -10.128 4.922 c -0.275 0.134 -0.599 0.134 -0.874 0 L 2 39.661 V 51.228 z" style="stroke: none; stroke-width: 1; stroke-dasharray: none; stroke-linecap: butt; stroke-linejoin: miter; stroke-miterlimit: 10; fill: rgb(19,0,255); fill-rule: nonzero; opacity: 1;" transform=" matrix(1 0 0 1 0 0) " stroke-linecap="round" />
	<path d="M 12.564 58.474 c -0.552 0 -1 -0.447 -1 -1 v -13.79 c 0 -0.552 0.448 -1 1 -1 s 1 0.448 1 1 v 13.79 C 13.564 58.026 13.117 58.474 12.564 58.474 z" style="stroke: none; stroke-width: 1; stroke-dasharray: none; stroke-linecap: butt; stroke-linejoin: miter; stroke-miterlimit: 10; fill: rgb(19,0,255); fill-rule: nonzero; opacity: 1;" transform=" matrix(1 0 0 1 0 0) " stroke-linecap="round" />
	<path d="M 45 28.951 c -0.149 0 -0.299 -0.034 -0.437 -0.101 l -11.564 -5.62 c -0.344 -0.167 -0.563 -0.517 -0.563 -0.899 s 0.219 -0.732 0.563 -0.899 l 11.564 -5.62 c 0.275 -0.134 0.599 -0.134 0.874 0 l 11.565 5.62 c 0.344 0.167 0.563 0.517 0.563 0.899 s -0.219 0.732 -0.563 0.899 l -11.565 5.62 C 45.299 28.917 45.149 28.951 45 28.951 z M 35.723 22.331 L 45 26.839 l 9.276 -4.508 L 45 17.822 L 35.723 22.331 z" style="stroke: none; stroke-width: 1; stroke-dasharray: none; stroke-linecap: butt; stroke-linejoin: miter; stroke-miterlimit: 10; fill: rgb(19,0,255); fill-rule: nonzero; opacity: 1;" transform=" matrix(1 0 0 1 0 0) " stroke-linecap="round" />
	<path d="M 45 42.741 c -0.149 0 -0.299 -0.034 -0.437 -0.101 l -11.564 -5.62 c -0.344 -0.167 -0.563 -0.517 -0.563 -0.899 v -13.79 c 0 -0.345 0.177 -0.665 0.47 -0.848 c 0.293 -0.183 0.659 -0.202 0.967 -0.052 L 45 26.839 l 11.127 -5.408 c 0.311 -0.15 0.677 -0.131 0.968 0.052 c 0.292 0.183 0.47 0.503 0.47 0.848 v 13.79 c 0 0.383 -0.219 0.732 -0.563 0.899 l -11.565 5.62 C 45.299 42.707 45.149 42.741 45 42.741 z M 34.436 35.495 L 45 40.629 l 10.564 -5.134 V 23.928 L 45.437 28.85 c -0.275 0.134 -0.599 0.134 -0.874 0 l -10.127 -4.922 V 35.495 z" style="stroke: none; stroke-width: 1; stroke-dasharray: none; stroke-linecap: butt; stroke-linejoin: miter; stroke-miterlimit: 10; fill: rgb(19,0,255); fill-rule: nonzero; opacity: 1;" transform=" matrix(1 0 0 1 0 0) " stroke-linecap="round" />
	<path d="M 45 42.741 c -0.552 0 -1 -0.448 -1 -1 v -13.79 c 0 -0.552 0.448 -1 1 -1 s 1 0.448 1 1 v 13.79 C 46 42.293 45.552 42.741 45 42.741 z" style="stroke: none; stroke-width: 1; stroke-dasharray: none; stroke-linecap: butt; stroke-linejoin: miter; stroke-miterlimit: 10; fill: rgb(19,0,255); fill-rule: nonzero; opacity: 1;" transform=" matrix(1 0 0 1 0 0) " stroke-linecap="round" />
	<path d="M 45 60.5 c -0.149 0 -0.299 -0.033 -0.437 -0.101 l -11.564 -5.62 c -0.344 -0.167 -0.563 -0.517 -0.563 -0.899 s 0.219 -0.732 0.563 -0.899 l 11.564 -5.62 c 0.275 -0.135 0.599 -0.135 0.874 0 l 11.565 5.62 c 0.344 0.167 0.563 0.517 0.563 0.899 s -0.219 0.732 -0.563 0.899 l -11.565 5.62 C 45.299 60.467 45.149 60.5 45 60.5 z M 35.723 53.88 L 45 58.388 l 9.276 -4.508 L 45 49.372 L 35.723 53.88 z" style="stroke: none; stroke-width: 1; stroke-dasharray: none; stroke-linecap: butt; stroke-linejoin: miter; stroke-miterlimit: 10; fill: rgb(19,0,255); fill-rule: nonzero; opacity: 1;" transform=" matrix(1 0 0 1 0 0) " stroke-linecap="round" />
	<path d="M 45 74.29 c -0.149 0 -0.299 -0.033 -0.437 -0.101 l -11.564 -5.621 c -0.344 -0.167 -0.563 -0.517 -0.563 -0.899 V 53.88 c 0 -0.345 0.177 -0.665 0.47 -0.848 c 0.293 -0.184 0.659 -0.202 0.967 -0.052 L 45 58.388 l 11.127 -5.407 c 0.311 -0.149 0.677 -0.132 0.968 0.052 c 0.292 0.183 0.47 0.503 0.47 0.848 v 13.789 c 0 0.383 -0.219 0.732 -0.563 0.899 l -11.565 5.621 C 45.299 74.257 45.149 74.29 45 74.29 z M 34.436 67.043 L 45 72.178 l 10.564 -5.135 V 55.478 l -10.127 4.922 c -0.275 0.135 -0.599 0.135 -0.874 0 l -10.127 -4.922 V 67.043 z" style="stroke: none; stroke-width: 1; stroke-dasharray: none; stroke-linecap: butt; stroke-linejoin: miter; stroke-miterlimit: 10; fill: rgb(19,0,255); fill-rule: nonzero; opacity: 1;" transform=" matrix(1 0 0 1 0 0) " stroke-linecap="round" />
	<path d="M 45 74.29 c -0.552 0 -1 -0.447 -1 -1 V 59.5 c 0 -0.553 0.448 -1 1 -1 s 1 0.447 1 1 v 13.79 C 46 73.843 45.552 74.29 45 74.29 z" style="stroke: none; stroke-width: 1; stroke-dasharray: none; stroke-linecap: butt; stroke-linejoin: miter; stroke-miterlimit: 10; fill: rgb(19,0,255); fill-rule: nonzero; opacity: 1;" transform=" matrix(1 0 0 1 0 0) " stroke-linecap="round" />
	<path d="M 24.13 40.675 c -0.365 0 -0.717 -0.2 -0.893 -0.548 c -0.25 -0.493 -0.052 -1.094 0.44 -1.344 l 15.088 -7.639 c 0.492 -0.249 1.094 -0.052 1.344 0.44 c 0.25 0.493 0.052 1.094 -0.44 1.344 l -15.088 7.639 C 24.437 40.64 24.282 40.675 24.13 40.675 z" style="stroke: none; stroke-width: 1; stroke-dasharray: none; stroke-linecap: butt; stroke-linejoin: miter; stroke-miterlimit: 10; fill: rgb(19,0,255); fill-rule: nonzero; opacity: 1;" transform=" matrix(1 0 0 1 0 0) " stroke-linecap="round" />
	<path d="M 33.435 54.88 c -0.145 0 -0.292 -0.031 -0.431 -0.098 l -15.088 -7.206 c -0.498 -0.238 -0.709 -0.835 -0.471 -1.333 c 0.237 -0.499 0.835 -0.71 1.333 -0.472 l 15.088 7.206 c 0.498 0.238 0.709 0.835 0.471 1.333 C 34.167 54.67 33.808 54.88 33.435 54.88 z" style="stroke: none; stroke-width: 1; stroke-dasharray: none; stroke-linecap: butt; stroke-linejoin: miter; stroke-miterlimit: 10; fill: rgb(19,0,255); fill-rule: nonzero; opacity: 1;" transform=" matrix(1 0 0 1 0 0) " stroke-linecap="round" />
	<path d="M 56.565 54.88 c -0.374 0 -0.731 -0.21 -0.903 -0.569 c -0.238 -0.498 -0.026 -1.096 0.472 -1.333 l 14.501 -6.921 c 0.497 -0.24 1.095 -0.026 1.333 0.472 s 0.026 1.096 -0.472 1.333 l -14.501 6.921 C 56.856 54.849 56.71 54.88 56.565 54.88 z" style="stroke: none; stroke-width: 1; stroke-dasharray: none; stroke-linecap: butt; stroke-linejoin: miter; stroke-miterlimit: 10; fill: rgb(19,0,255); fill-rule: nonzero; opacity: 1;" transform=" matrix(1 0 0 1 0 0) " stroke-linecap="round" />
	<path d="M 65.87 40.675 c -0.151 0 -0.306 -0.035 -0.451 -0.108 L 50.33 32.928 c -0.492 -0.25 -0.689 -0.851 -0.44 -1.344 c 0.25 -0.492 0.849 -0.689 1.345 -0.44 l 15.089 7.639 c 0.492 0.25 0.689 0.851 0.44 1.344 C 66.587 40.475 66.235 40.675 65.87 40.675 z" style="stroke: none; stroke-width: 1; stroke-dasharray: none; stroke-linecap: butt; stroke-linejoin: miter; stroke-miterlimit: 10; fill: rgb(19,0,255); fill-rule: nonzero; opacity: 1;" transform=" matrix(1 0 0 1 0 0) " stroke-linecap="round" />
</g>
</svg>