<svg xmlns="http://www.w3.org/2000/svg" xmlns:xlink="http://www.w3.org/1999/xlink" version="1.1" width="128" height="128" viewBox="0 0 256 256" xml:space="preserve">

<defs>
</defs>
<g style="stroke: none; stroke-width: 0; stroke-dasharray: none; stroke-linecap: butt; stroke-linejoin: miter; stroke-miterlimit: 10; fill: none; fill-rule: nonzero; opacity: 1;" transform="translate(0 -2.842170943040401e-14) scale(2.81 2.81)" >
	<path d="M 71.326 90 H 18.674 C 8.361 90 0 81.639 0 71.326 V 18.674 C 0 8.361 8.361 0 18.674 0 h 52.652 C 81.639 0 90 8.361 90 18.674 v 52.652 C 90 81.639 81.639 90 71.326 90 z" style="stroke: none; stroke-width: 1; stroke-dasharray: none; stroke-linecap: butt; stroke-linejoin: miter; stroke-miterlimit: 10; fill: rgb(0,0,0); fill-rule: nonzero; opacity: 1;" transform=" matrix(1 0 0 1 0 0) " stroke-linecap="round" />
</g>
<g style="stroke: none; stroke-width: 0; stroke-dasharray: none; stroke-linecap: butt; stroke-linejoin: miter; stroke-miterlimit: 10; fill: none; fill-rule: nonzero; opacity: 1;" transform="translate(41.722334004024134 41.722334004024106) scale(1.92 1.92)" >
	<path d="M 19.5 28.5 C 28.598 28.5 36 35.902 36 45 s -7.402 16.5 -16.5 16.5 S 3 54.098 3 45 S 10.402 28.5 19.5 28.5 M 19.5 25.5 C 8.73 25.5 0 34.23 0 45 s 8.73 19.5 19.5 19.5 S 39 55.77 39 45 S 30.27 25.5 19.5 25.5 L 19.5 25.5 z" style="stroke: none; stroke-width: 1; stroke-dasharray: none; stroke-linecap: butt; stroke-linejoin: miter; stroke-miterlimit: 10; fill: rgb(19,0,255); fill-rule: nonzero; opacity: 1;" transform=" matrix(1 0 0 1 0 0) " stroke-linecap="round" />
	<path d="M 26.07 48.065 c -0.829 0 -1.5 0.671 -1.5 1.5 c 0 0.874 -0.533 1.612 -1.163 1.612 h -7.813 c -0.631 0 -1.164 -0.738 -1.164 -1.612 v -9.129 c 0 -0.874 0.533 -1.612 1.164 -1.612 h 7.813 c 0.63 0 1.163 0.738 1.163 1.612 c 0 0.829 0.671 1.5 1.5 1.5 s 1.5 -0.671 1.5 -1.5 c 0 -2.543 -1.868 -4.612 -4.163 -4.612 H 21 v -1.657 c 0 -0.829 -0.671 -1.5 -1.5 -1.5 s -1.5 0.671 -1.5 1.5 v 1.657 h -2.406 c -2.296 0 -4.164 2.069 -4.164 4.612 v 9.129 c 0 2.543 1.868 4.612 4.164 4.612 H 18 v 1.656 c 0 0.828 0.671 1.5 1.5 1.5 s 1.5 -0.672 1.5 -1.5 v -1.656 h 2.407 c 2.295 0 4.163 -2.069 4.163 -4.612 C 27.57 48.736 26.898 48.065 26.07 48.065 z" style="stroke: none; stroke-width: 1; stroke-dasharray: none; stroke-linecap: butt; stroke-linejoin: miter; stroke-miterlimit: 10; fill: rgb(19,0,255); fill-rule: nonzero; opacity: 1;" transform=" matrix(1 0 0 1 0 0) " stroke-linecap="round" />
	<path d="M 70.5 28.5 C 79.598 28.5 87 35.902 87 45 s -7.402 16.5 -16.5 16.5 S 54 54.098 54 45 S 61.402 28.5 70.5 28.5 M 70.5 25.5 C 59.73 25.5 51 34.23 51 45 s 8.73 19.5 19.5 19.5 S 90 55.77 90 45 S 81.27 25.5 70.5 25.5 L 70.5 25.5 z" style="stroke: none; stroke-width: 1; stroke-dasharray: none; stroke-linecap: butt; stroke-linejoin: miter; stroke-miterlimit: 10; fill: rgb(19,0,255); fill-rule: nonzero; opacity: 1;" transform=" matrix(1 0 0 1 0 0) " stroke-linecap="round" />
	<path d="M 77.07 48.065 c -0.828 0 -1.5 0.671 -1.5 1.5 c 0 0.874 -0.532 1.612 -1.163 1.612 h -7.813 c -0.631 0 -1.163 -0.738 -1.163 -1.612 v -9.129 c 0 -0.874 0.532 -1.612 1.163 -1.612 h 7.813 c 0.631 0 1.163 0.738 1.163 1.612 c 0 0.829 0.672 1.5 1.5 1.5 s 1.5 -0.671 1.5 -1.5 c 0 -2.543 -1.867 -4.612 -4.163 -4.612 H 72 v -1.657 c 0 -0.829 -0.672 -1.5 -1.5 -1.5 s -1.5 0.671 -1.5 1.5 v 1.657 h -2.407 c -2.296 0 -4.163 2.069 -4.163 4.612 v 9.129 c 0 2.543 1.867 4.612 4.163 4.612 H 69 v 1.656 c 0 0.828 0.672 1.5 1.5 1.5 s 1.5 -0.672 1.5 -1.5 v -1.656 h 2.406 c 2.296 0 4.163 -2.069 4.163 -4.612 C 78.57 48.736 77.898 48.065 77.07 48.065 z" style="stroke: none; stroke-width: 1; stroke-dasharray: none; stroke-linecap: butt; stroke-linejoin: miter; stroke-miterlimit: 10; fill: rgb(19,0,255); fill-rule: nonzero; opacity: 1;" transform=" matrix(1 0 0 1 0 0) " stroke-linecap="round" />
	<path d="M 59.565 24.569 l 0.294 -5.696 c 0.043 -0.827 -0.594 -1.532 -1.421 -1.575 c -0.854 -0.045 -1.533 0.594 -1.575 1.421 l -0.122 2.363 c -4.098 -3.614 -8.596 -5.482 -13.152 -5.363 c -4.921 0.096 -9.451 2.443 -13.098 6.786 c -0.533 0.635 -0.45 1.581 0.184 2.114 c 0.635 0.533 1.581 0.45 2.114 -0.184 c 3.073 -3.661 6.829 -5.637 10.859 -5.716 c 3.715 -0.062 7.43 1.478 10.894 4.454 l -2.247 0.116 c -0.827 0.042 -1.464 0.748 -1.421 1.575 c 0.041 0.801 0.704 1.423 1.497 1.423 c 0.025 0 0.052 0 0.078 -0.002 l 5.695 -0.293 c 0.073 -0.004 0.135 -0.036 0.205 -0.049 c 0.098 -0.019 0.196 -0.031 0.29 -0.07 c 0.098 -0.041 0.179 -0.103 0.265 -0.163 c 0.056 -0.039 0.12 -0.059 0.172 -0.106 c 0.009 -0.008 0.012 -0.019 0.02 -0.027 c 0.115 -0.109 0.204 -0.24 0.279 -0.38 c 0.015 -0.028 0.042 -0.051 0.055 -0.08 C 59.507 24.946 59.555 24.763 59.565 24.569 z" style="stroke: none; stroke-width: 1; stroke-dasharray: none; stroke-linecap: butt; stroke-linejoin: miter; stroke-miterlimit: 10; fill: rgb(19,0,255); fill-rule: nonzero; opacity: 1;" transform=" matrix(1 0 0 1 0 0) " stroke-linecap="round" />
	<path d="M 59.326 65.382 c -0.635 -0.533 -1.58 -0.45 -2.113 0.184 c -3.074 3.661 -6.829 5.638 -10.86 5.717 c -3.702 0.051 -7.424 -1.481 -10.891 -4.453 l 2.245 -0.116 c 0.828 -0.043 1.463 -0.748 1.421 -1.575 c -0.043 -0.828 -0.765 -1.453 -1.575 -1.421 l -5.696 0.294 c -0.08 0.004 -0.149 0.038 -0.225 0.055 c -0.084 0.018 -0.167 0.028 -0.248 0.06 c -0.116 0.046 -0.214 0.115 -0.314 0.187 c -0.047 0.033 -0.101 0.047 -0.145 0.086 c -0.009 0.008 -0.012 0.02 -0.021 0.028 c -0.114 0.108 -0.202 0.238 -0.278 0.378 c -0.015 0.029 -0.043 0.051 -0.056 0.081 c -0.077 0.168 -0.125 0.352 -0.135 0.546 l -0.293 5.695 c -0.042 0.827 0.594 1.532 1.421 1.575 c 0.026 0.001 0.052 0.002 0.079 0.002 c 0.793 0 1.456 -0.622 1.497 -1.423 l 0.122 -2.364 c 4.001 3.523 8.383 5.367 12.834 5.367 c 0.106 0 0.211 -0.001 0.317 -0.003 c 4.922 -0.097 9.452 -2.443 13.099 -6.786 C 60.042 66.86 59.959 65.914 59.326 65.382 z" style="stroke: none; stroke-width: 1; stroke-dasharray: none; stroke-linecap: butt; stroke-linejoin: miter; stroke-miterlimit: 10; fill: rgb(19,0,255); fill-rule: nonzero; opacity: 1;" transform=" matrix(1 0 0 1 0 0) " stroke-linecap="round" />
</g>
</svg>