<svg xmlns="http://www.w3.org/2000/svg" xmlns:xlink="http://www.w3.org/1999/xlink" version="1.1" width="256" height="256" viewBox="0 0 256 256" xml:space="preserve">

<defs>
</defs>
<g style="stroke: none; stroke-width: 0; stroke-dasharray: none; stroke-linecap: butt; stroke-linejoin: miter; stroke-miterlimit: 10; fill: none; fill-rule: nonzero; opacity: 1;" transform="translate(0 -2.842170943040401e-14) scale(2.81 2.81)" >
	<path d="M 71.326 90 H 18.674 C 8.361 90 0 81.639 0 71.326 V 18.674 C 0 8.361 8.361 0 18.674 0 h 52.652 C 81.639 0 90 8.361 90 18.674 v 52.652 C 90 81.639 81.639 90 71.326 90 z" style="stroke: none; stroke-width: 1; stroke-dasharray: none; stroke-linecap: butt; stroke-linejoin: miter; stroke-miterlimit: 10; fill: rgb(0,0,0); fill-rule: nonzero; opacity: 1;" transform=" matrix(1 0 0 1 0 0) " stroke-linecap="round" />
</g>
<g style="stroke: none; stroke-width: 0; stroke-dasharray: none; stroke-linecap: butt; stroke-linejoin: miter; stroke-miterlimit: 10; fill: none; fill-rule: nonzero; opacity: 1;" transform="translate(41.722334004024134 41.722334004024106) scale(1.92 1.92)" >
	<path d="M 26.07 48.065 c -0.829 0 -1.5 0.671 -1.5 1.5 c 0 0.874 -0.533 1.612 -1.163 1.612 h -7.813 c -0.631 0 -1.164 -0.738 -1.164 -1.612 v -9.129 c 0 -0.874 0.533 -1.612 1.164 -1.612 h 7.813 c 0.63 0 1.163 0.738 1.163 1.612 c 0 0.829 0.671 1.5 1.5 1.5 s 1.5 -0.671 1.5 -1.5 c 0 -2.543 -1.868 -4.612 -4.163 -4.612 H 21 v -1.657 c 0 -0.829 -0.671 -1.5 -1.5 -1.5 s -1.5 0.671 -1.5 1.5 v 1.657 h -2.406 c -2.296 0 -4.164 2.069 -4.164 4.612 v 9.129 c 0 2.543 1.868 4.612 4.164 4.612 H 18 v 1.656 c 0 0.828 0.671 1.5 1.5 1.5 s 1.5 -0.672 1.5 -1.5 v -1.656 h 2.407 c 2.295 0 4.163 -2.069 4.163 -4.612 C 27.57 48.736 26.898 48.065 26.07 48.065 z" style="stroke: none; stroke-width: 1; stroke-dasharray: none; stroke-linecap: butt; stroke-linejoin: miter; stroke-miterlimit: 10; fill: rgb(19,0,255); fill-rule: nonzero; opacity: 1;" transform=" matrix(1 0 0 1 0 0) " stroke-linecap="round" />
	<path d="M 77.07 48.065 c -0.828 0 -1.5 0.671 -1.5 1.5 c 0 0.874 -0.532 1.612 -1.163 1.612 h -7.813 c -0.631 0 -1.163 -0.738 -1.163 -1.612 v -9.129 c 0 -0.874 0.532 -1.612 1.163 -1.612 h 7.813 c 0.631 0 1.163 0.738 1.163 1.612 c 0 0.829 0.672 1.5 1.5 1.5 s 1.5 -0.671 1.5 -1.5 c 0 -2.543 -1.867 -4.612 -4.163 -4.612 H 72 v -1.657 c 0 -0.829 -0.672 -1.5 -1.5 -1.5 s -1.5 0.671 -1.5 1.5 v 1.657 h -2.407 c -2.296 0 -4.163 2.069 -4.163 4.612 v 9.129 c 0 2.543 1.867 4.612 4.163 4.612 H 69 v 1.656 c 0 0.828 0.672 1.5 1.5 1.5 s 1.5 -0.672 1.5 -1.5 v -1.656 h 2.406 c 2.296 0 4.163 -2.069 4.163 -4.612 C 78.57 48.736 77.898 48.065 77.07 48.065 z" style="stroke: none; stroke-width: 1; stroke-dasharray: none; stroke-linecap: butt; stroke-linejoin: miter; stroke-miterlimit: 10; fill: rgb(19,0,255); fill-rule: nonzero; opacity: 1;" transform=" matrix(1 0 0 1 0 0) " stroke-linecap="round" />
	<path d="M 59.025 43.995 l -3.82 -4.235 c -0.558 -0.616 -1.504 -0.664 -2.119 -0.109 c -0.615 0.555 -0.664 1.503 -0.109 2.119 l 1.561 1.73 H 38.924 c -0.768 -10.066 -9.161 -18 -19.424 -18 C 8.73 25.5 0 34.23 0 45 c 0 10.77 8.73 19.5 19.5 19.5 c 10.263 0 18.656 -7.934 19.424 -18 h 15.613 l -1.561 1.73 c -0.555 0.615 -0.506 1.563 0.109 2.119 c 0.287 0.259 0.646 0.386 1.005 0.386 c 0.409 0 0.817 -0.167 1.114 -0.495 l 3.82 -4.235 C 59.54 45.434 59.54 44.566 59.025 43.995 z M 19.5 61.5 C 10.402 61.5 3 54.098 3 45 c 0 -9.098 7.402 -16.5 16.5 -16.5 S 36 35.902 36 45 C 36 54.098 28.598 61.5 19.5 61.5 z" style="stroke: none; stroke-width: 1; stroke-dasharray: none; stroke-linecap: butt; stroke-linejoin: miter; stroke-miterlimit: 10; fill: rgb(19,0,255); fill-rule: nonzero; opacity: 1;" transform=" matrix(1 0 0 1 0 0) " stroke-linecap="round" />
	<path d="M 70.5 25.5 c -6.843 0 -12.852 3.532 -16.332 8.865 l 2.1 2.328 C 59.134 31.801 64.433 28.5 70.5 28.5 C 79.598 28.5 87 35.902 87 45 c 0 9.098 -7.402 16.5 -16.5 16.5 c -6.067 0 -11.365 -3.301 -14.232 -8.192 l -2.1 2.328 c 3.48 5.333 9.489 8.864 16.332 8.864 C 81.27 64.5 90 55.77 90 45 C 90 34.23 81.27 25.5 70.5 25.5 z" style="stroke: none; stroke-width: 1; stroke-dasharray: none; stroke-linecap: butt; stroke-linejoin: miter; stroke-miterlimit: 10; fill: rgb(19,0,255); fill-rule: nonzero; opacity: 1;" transform=" matrix(1 0 0 1 0 0) " stroke-linecap="round" />
</g>
</svg>