<svg xmlns="http://www.w3.org/2000/svg" xmlns:xlink="http://www.w3.org/1999/xlink" version="1.1" width="256" height="256" viewBox="0 0 256 256" xml:space="preserve">

<defs>
</defs>
<g style="stroke: none; stroke-width: 0; stroke-dasharray: none; stroke-linecap: butt; stroke-linejoin: miter; stroke-miterlimit: 10; fill: none; fill-rule: nonzero; opacity: 1;" transform="translate(0 -2.842170943040401e-14) scale(2.81 2.81)" >
	<path d="M 71.326 90 H 18.674 C 8.361 90 0 81.639 0 71.326 V 18.674 C 0 8.361 8.361 0 18.674 0 h 52.652 C 81.639 0 90 8.361 90 18.674 v 52.652 C 90 81.639 81.639 90 71.326 90 z" style="stroke: none; stroke-width: 1; stroke-dasharray: none; stroke-linecap: butt; stroke-linejoin: miter; stroke-miterlimit: 10; fill: rgb(0,0,0); fill-rule: nonzero; opacity: 1;" transform=" matrix(1 0 0 1 0 0) " stroke-linecap="round" />
</g>
<g style="stroke: none; stroke-width: 0; stroke-dasharray: none; stroke-linecap: butt; stroke-linejoin: miter; stroke-miterlimit: 10; fill: none; fill-rule: nonzero; opacity: 1;" transform="translate(41.722334004024134 41.722334004024106) scale(1.92 1.92)" >
	<path d="M 45 82.876 C 24.115 82.876 7.124 65.885 7.124 45 S 24.115 7.124 45 7.124 c 7.231 0 14.263 2.045 20.333 5.915 c 0.466 0.297 0.603 0.915 0.306 1.381 c -0.296 0.465 -0.915 0.604 -1.38 0.306 C 58.51 11.061 51.85 9.124 45 9.124 C 25.218 9.124 9.124 25.218 9.124 45 S 25.218 80.876 45 80.876 S 80.876 64.782 80.876 45 c 0 -8.361 -2.938 -16.5 -8.272 -22.918 c -0.354 -0.425 -0.295 -1.055 0.129 -1.408 c 0.427 -0.354 1.057 -0.295 1.408 0.13 c 5.633 6.777 8.735 15.37 8.735 24.197 C 82.876 65.885 65.885 82.876 45 82.876 z" style="stroke: none; stroke-width: 1; stroke-dasharray: none; stroke-linecap: butt; stroke-linejoin: miter; stroke-miterlimit: 10; fill: rgb(19,0,255); fill-rule: nonzero; opacity: 1;" transform=" matrix(1 0 0 1 0 0) " stroke-linecap="round" />
	<path d="M 36.952 50.944 c -0.552 0 -1 -0.447 -1 -1 V 26.419 c 0 -2.93 2.384 -5.313 5.313 -5.313 h 21.688 c 2.931 0 5.314 2.384 5.314 5.313 v 14.267 c 0 1.827 1.486 3.314 3.313 3.314 h 10.295 c 0.553 0 1 0.448 1 1 s -0.447 1 -1 1 H 71.581 c -2.93 0 -5.313 -2.384 -5.313 -5.314 V 26.419 c 0 -1.827 -1.487 -3.313 -3.314 -3.313 H 41.265 c -1.827 0 -3.313 1.486 -3.313 3.313 v 23.525 C 37.952 50.497 37.504 50.944 36.952 50.944 z" style="stroke: none; stroke-width: 1; stroke-dasharray: none; stroke-linecap: butt; stroke-linejoin: miter; stroke-miterlimit: 10; fill: rgb(19,0,255); fill-rule: nonzero; opacity: 1;" transform=" matrix(1 0 0 1 0 0) " stroke-linecap="round" />
	<path d="M 67.268 75.274 c -0.553 0 -1 -0.447 -1 -1 V 59.6 c 0 -0.553 0.447 -1 1 -1 s 1 0.447 1 1 v 14.675 C 68.268 74.827 67.82 75.274 67.268 75.274 z" style="stroke: none; stroke-width: 1; stroke-dasharray: none; stroke-linecap: butt; stroke-linejoin: miter; stroke-miterlimit: 10; fill: rgb(19,0,255); fill-rule: nonzero; opacity: 1;" transform=" matrix(1 0 0 1 0 0) " stroke-linecap="round" />
	<path d="M 36.952 58.18 c -2.546 0 -4.618 -2.071 -4.618 -4.617 c 0 -2.547 2.072 -4.618 4.618 -4.618 s 4.618 2.071 4.618 4.618 C 41.569 56.108 39.498 58.18 36.952 58.18 z M 36.952 50.944 c -1.444 0 -2.618 1.175 -2.618 2.618 s 1.174 2.617 2.618 2.617 c 1.443 0 2.618 -1.174 2.618 -2.617 S 38.395 50.944 36.952 50.944 z" style="stroke: none; stroke-width: 1; stroke-dasharray: none; stroke-linecap: butt; stroke-linejoin: miter; stroke-miterlimit: 10; fill: rgb(19,0,255); fill-rule: nonzero; opacity: 1;" transform=" matrix(1 0 0 1 0 0) " stroke-linecap="round" />
	<path d="M 52.232 82.164 c -0.553 0 -1 -0.447 -1 -1 V 41.025 c 0 -0.552 0.447 -1 1 -1 s 1 0.448 1 1 v 40.139 C 53.232 81.717 52.785 82.164 52.232 82.164 z" style="stroke: none; stroke-width: 1; stroke-dasharray: none; stroke-linecap: butt; stroke-linejoin: miter; stroke-miterlimit: 10; fill: rgb(19,0,255); fill-rule: nonzero; opacity: 1;" transform=" matrix(1 0 0 1 0 0) " stroke-linecap="round" />
	<path d="M 52.232 42.025 c -2.547 0 -4.618 -2.072 -4.618 -4.618 s 2.071 -4.618 4.618 -4.618 s 4.618 2.071 4.618 4.618 S 54.779 42.025 52.232 42.025 z M 52.232 34.789 c -1.443 0 -2.618 1.174 -2.618 2.618 c 0 1.444 1.175 2.618 2.618 2.618 s 2.618 -1.174 2.618 -2.618 C 54.851 35.963 53.676 34.789 52.232 34.789 z" style="stroke: none; stroke-width: 1; stroke-dasharray: none; stroke-linecap: butt; stroke-linejoin: miter; stroke-miterlimit: 10; fill: rgb(19,0,255); fill-rule: nonzero; opacity: 1;" transform=" matrix(1 0 0 1 0 0) " stroke-linecap="round" />
	<path d="M 67.268 60.6 c -2.547 0 -4.618 -2.071 -4.618 -4.617 c 0 -2.547 2.071 -4.618 4.618 -4.618 c 2.546 0 4.617 2.071 4.617 4.618 C 71.885 58.528 69.813 60.6 67.268 60.6 z M 67.268 53.364 c -1.443 0 -2.618 1.175 -2.618 2.618 s 1.175 2.617 2.618 2.617 s 2.617 -1.174 2.617 -2.617 S 68.711 53.364 67.268 53.364 z" style="stroke: none; stroke-width: 1; stroke-dasharray: none; stroke-linecap: butt; stroke-linejoin: miter; stroke-miterlimit: 10; fill: rgb(19,0,255); fill-rule: nonzero; opacity: 1;" transform=" matrix(1 0 0 1 0 0) " stroke-linecap="round" />
	<path d="M 45 90 C 20.187 90 0 69.813 0 45 C 0 20.187 20.187 0 45 0 c 24.813 0 45 20.187 45 45 C 90 69.813 69.813 90 45 90 z M 45 2 C 21.29 2 2 21.29 2 45 c 0 23.71 19.29 43 43 43 c 23.71 0 43 -19.29 43 -43 C 88 21.29 68.71 2 45 2 z" style="stroke: none; stroke-width: 1; stroke-dasharray: none; stroke-linecap: butt; stroke-linejoin: miter; stroke-miterlimit: 10; fill: rgb(19,0,255); fill-rule: nonzero; opacity: 1;" transform=" matrix(1 0 0 1 0 0) " stroke-linecap="round" />
	<path d="M 22.232 38.57 c -0.552 0 -1 -0.448 -1 -1 V 16.002 c 0 -0.552 0.448 -1 1 -1 s 1 0.448 1 1 V 37.57 C 23.232 38.123 22.785 38.57 22.232 38.57 z" style="stroke: none; stroke-width: 1; stroke-dasharray: none; stroke-linecap: butt; stroke-linejoin: miter; stroke-miterlimit: 10; fill: rgb(19,0,255); fill-rule: nonzero; opacity: 1;" transform=" matrix(1 0 0 1 0 0) " stroke-linecap="round" />
	<path d="M 22.232 45.806 c -2.546 0 -4.618 -2.071 -4.618 -4.618 s 2.072 -4.618 4.618 -4.618 s 4.618 2.072 4.618 4.618 S 24.779 45.806 22.232 45.806 z M 22.232 38.57 c -1.444 0 -2.618 1.174 -2.618 2.618 c 0 1.443 1.174 2.618 2.618 2.618 s 2.618 -1.174 2.618 -2.618 C 24.851 39.745 23.676 38.57 22.232 38.57 z" style="stroke: none; stroke-width: 1; stroke-dasharray: none; stroke-linecap: butt; stroke-linejoin: miter; stroke-miterlimit: 10; fill: rgb(19,0,255); fill-rule: nonzero; opacity: 1;" transform=" matrix(1 0 0 1 0 0) " stroke-linecap="round" />
	<path d="M 36.952 81.99 c -0.552 0 -1 -0.447 -1 -1 V 68.944 c 0 -1.507 -1.226 -2.732 -2.732 -2.732 l -18.931 0.185 c -0.555 0.027 -1.004 -0.438 -1.01 -0.99 c -0.005 -0.553 0.438 -1.004 0.99 -1.01 l 18.941 -0.185 c 2.619 0 4.742 2.123 4.742 4.732 V 80.99 C 37.952 81.543 37.504 81.99 36.952 81.99 z" style="stroke: none; stroke-width: 1; stroke-dasharray: none; stroke-linecap: butt; stroke-linejoin: miter; stroke-miterlimit: 10; fill: rgb(19,0,255); fill-rule: nonzero; opacity: 1;" transform=" matrix(1 0 0 1 0 0) " stroke-linecap="round" />
</g>
</svg>