<svg xmlns="http://www.w3.org/2000/svg" xmlns:xlink="http://www.w3.org/1999/xlink" version="1.1" width="256" height="256" viewBox="0 0 256 256" xml:space="preserve">

<defs>
</defs>
<g style="stroke: none; stroke-width: 0; stroke-dasharray: none; stroke-linecap: butt; stroke-linejoin: miter; stroke-miterlimit: 10; fill: none; fill-rule: nonzero; opacity: 1;" transform="translate(0 -2.842170943040401e-14) scale(2.81 2.81)" >
	<path d="M 71.326 90 H 18.674 C 8.361 90 0 81.639 0 71.326 V 18.674 C 0 8.361 8.361 0 18.674 0 h 52.652 C 81.639 0 90 8.361 90 18.674 v 52.652 C 90 81.639 81.639 90 71.326 90 z" style="stroke: none; stroke-width: 1; stroke-dasharray: none; stroke-linecap: butt; stroke-linejoin: miter; stroke-miterlimit: 10; fill: rgb(0,0,0); fill-rule: nonzero; opacity: 1;" transform=" matrix(1 0 0 1 0 0) " stroke-linecap="round" />
</g>
<g style="stroke: none; stroke-width: 0; stroke-dasharray: none; stroke-linecap: butt; stroke-linejoin: miter; stroke-miterlimit: 10; fill: none; fill-rule: nonzero; opacity: 1;" transform="translate(46.17984832069338 46.17984832069335) scale(1.82 1.82)" >
	<path d="M 83.029 32.387 H 57.157 V 12.252 c 2.927 -0.48 5.171 -3.021 5.171 -6.082 c 0 -3.402 -2.769 -6.17 -6.171 -6.17 s -6.17 2.768 -6.17 6.17 c 0 3.061 2.243 5.602 5.17 6.082 v 20.135 H 34.843 v -8.852 l 2.228 2.228 c 0.391 0.391 1.023 0.391 1.414 0 s 0.391 -1.023 0 -1.414 l -3.935 -3.935 c -0.287 -0.286 -0.716 -0.372 -1.09 -0.217 c -0.374 0.155 -0.617 0.52 -0.617 0.924 v 11.266 H 6.971 c -3.739 0 -6.781 3.042 -6.781 6.781 v 44.05 C 0.19 86.958 3.232 90 6.971 90 h 76.059 c 3.738 0 6.78 -3.042 6.78 -6.781 v -44.05 C 89.81 35.429 86.768 32.387 83.029 32.387 z M 51.987 6.17 c 0 -2.3 1.871 -4.17 4.17 -4.17 c 2.3 0 4.171 1.871 4.171 4.17 s -1.871 4.17 -4.171 4.17 C 53.858 10.341 51.987 8.47 51.987 6.17 z M 87.81 83.219 c 0 2.637 -2.145 4.781 -4.78 4.781 H 6.971 c -2.636 0 -4.781 -2.145 -4.781 -4.781 v -44.05 c 0 -2.636 2.145 -4.781 4.781 -4.781 h 25.872 v 1.725 c 0 6.704 5.454 12.158 12.157 12.158 c 0.552 0 1 -0.447 1 -1 s -0.448 -1 -1 -1 c -5.601 0 -10.157 -4.557 -10.157 -10.158 v -1.725 h 48.187 c 2.636 0 4.78 2.145 4.78 4.781 V 83.219 z" style="stroke: none; stroke-width: 1; stroke-dasharray: none; stroke-linecap: butt; stroke-linejoin: miter; stroke-miterlimit: 10; fill: rgb(19,0,255); fill-rule: nonzero; opacity: 1;" transform=" matrix(1 0 0 1 0 0) " stroke-linecap="round" />
	<path d="M 43.205 65.38 H 12.313 c -0.552 0 -1 0.447 -1 1 s 0.448 1 1 1 h 30.892 c 0.552 0 1 -0.447 1 -1 S 43.757 65.38 43.205 65.38 z" style="stroke: none; stroke-width: 1; stroke-dasharray: none; stroke-linecap: butt; stroke-linejoin: miter; stroke-miterlimit: 10; fill: rgb(19,0,255); fill-rule: nonzero; opacity: 1;" transform=" matrix(1 0 0 1 0 0) " stroke-linecap="round" />
	<path d="M 43.205 76.728 H 12.313 c -0.552 0 -1 0.447 -1 1 s 0.448 1 1 1 h 30.892 c 0.552 0 1 -0.447 1 -1 S 43.757 76.728 43.205 76.728 z" style="stroke: none; stroke-width: 1; stroke-dasharray: none; stroke-linecap: butt; stroke-linejoin: miter; stroke-miterlimit: 10; fill: rgb(19,0,255); fill-rule: nonzero; opacity: 1;" transform=" matrix(1 0 0 1 0 0) " stroke-linecap="round" />
	<path d="M 69.728 63.753 c 2.146 -1.402 3.57 -3.822 3.57 -6.572 v -3.085 c 0 -4.327 -3.521 -7.848 -7.849 -7.848 s -7.849 3.521 -7.849 7.848 v 3.085 c 0 2.75 1.424 5.17 3.57 6.572 c -5.203 1.784 -8.958 6.713 -8.958 12.513 v 1.461 c 0 0.553 0.447 1 1 1 h 24.473 c 0.553 0 1 -0.447 1 -1 v -1.461 C 78.687 70.466 74.931 65.537 69.728 63.753 z M 59.602 57.182 v -3.085 c 0 -3.225 2.624 -5.848 5.849 -5.848 s 5.849 2.623 5.849 5.848 v 3.085 c 0 3.225 -2.624 5.849 -5.849 5.849 S 59.602 60.406 59.602 57.182 z M 76.687 76.728 H 54.214 v -0.461 c 0 -6.195 5.041 -11.236 11.236 -11.236 s 11.236 5.041 11.236 11.236 V 76.728 z" style="stroke: none; stroke-width: 1; stroke-dasharray: none; stroke-linecap: butt; stroke-linejoin: miter; stroke-miterlimit: 10; fill: rgb(19,0,255); fill-rule: nonzero; opacity: 1;" transform=" matrix(1 0 0 1 0 0) " stroke-linecap="round" />
	<path d="M 43.205 54.015 H 12.313 c -0.552 0 -1 0.447 -1 1 s 0.448 1 1 1 h 30.892 c 0.552 0 1 -0.447 1 -1 S 43.757 54.015 43.205 54.015 z" style="stroke: none; stroke-width: 1; stroke-dasharray: none; stroke-linecap: butt; stroke-linejoin: miter; stroke-miterlimit: 10; fill: rgb(19,0,255); fill-rule: nonzero; opacity: 1;" transform=" matrix(1 0 0 1 0 0) " stroke-linecap="round" />
</g>
</svg>