<svg xmlns="http://www.w3.org/2000/svg" xmlns:xlink="http://www.w3.org/1999/xlink" version="1.1" width="256" height="256" viewBox="0 0 256 256" xml:space="preserve">

<defs>
</defs>
<g style="stroke: none; stroke-width: 0; stroke-dasharray: none; stroke-linecap: butt; stroke-linejoin: miter; stroke-miterlimit: 10; fill: none; fill-rule: nonzero; opacity: 1;" transform="translate(0 -2.842170943040401e-14) scale(2.81 2.81)" >
	<path d="M 71.326 90 H 18.674 C 8.361 90 0 81.639 0 71.326 V 18.674 C 0 8.361 8.361 0 18.674 0 h 52.652 C 81.639 0 90 8.361 90 18.674 v 52.652 C 90 81.639 81.639 90 71.326 90 z" style="stroke: none; stroke-width: 1; stroke-dasharray: none; stroke-linecap: butt; stroke-linejoin: miter; stroke-miterlimit: 10; fill: rgb(0,0,0); fill-rule: nonzero; opacity: 1;" transform=" matrix(1 0 0 1 0 0) " stroke-linecap="round" />
</g>
<g style="stroke: none; stroke-width: 0; stroke-dasharray: none; stroke-linecap: butt; stroke-linejoin: miter; stroke-miterlimit: 10; fill: none; fill-rule: nonzero; opacity: 1;" transform="translate(41.722334004024134 41.722334004024106) scale(1.92 1.92)" >
	<path d="M 81.466 90 H 55.6 c -0.553 0 -1 -0.447 -1 -1 s 0.447 -1 1 -1 h 25.866 C 85.068 88 88 85.068 88 81.466 V 55.6 c 0 -0.553 0.447 -1 1 -1 s 1 0.447 1 1 v 25.866 C 90 86.172 86.172 90 81.466 90 z" style="stroke: none; stroke-width: 1; stroke-dasharray: none; stroke-linecap: butt; stroke-linejoin: miter; stroke-miterlimit: 10; fill: rgb(19,0,255); fill-rule: nonzero; opacity: 1;" transform=" matrix(1 0 0 1 0 0) " stroke-linecap="round" />
	<path d="M 34.4 90 H 8.534 C 3.828 90 0 86.172 0 81.466 V 55.6 c 0 -0.553 0.448 -1 1 -1 s 1 0.447 1 1 v 25.866 C 2 85.068 4.931 88 8.534 88 H 34.4 c 0.552 0 1 0.447 1 1 S 34.952 90 34.4 90 z" style="stroke: none; stroke-width: 1; stroke-dasharray: none; stroke-linecap: butt; stroke-linejoin: miter; stroke-miterlimit: 10; fill: rgb(19,0,255); fill-rule: nonzero; opacity: 1;" transform=" matrix(1 0 0 1 0 0) " stroke-linecap="round" />
	<path d="M 1 35.4 c -0.552 0 -1 -0.448 -1 -1 V 8.534 C 0 3.828 3.828 0 8.534 0 H 34.4 c 0.552 0 1 0.448 1 1 s -0.448 1 -1 1 H 8.534 C 4.931 2 2 4.931 2 8.534 V 34.4 C 2 34.952 1.552 35.4 1 35.4 z" style="stroke: none; stroke-width: 1; stroke-dasharray: none; stroke-linecap: butt; stroke-linejoin: miter; stroke-miterlimit: 10; fill: rgb(19,0,255); fill-rule: nonzero; opacity: 1;" transform=" matrix(1 0 0 1 0 0) " stroke-linecap="round" />
	<path d="M 89 35.4 c -0.553 0 -1 -0.448 -1 -1 V 8.534 C 88 4.931 85.068 2 81.466 2 H 55.6 c -0.553 0 -1 -0.448 -1 -1 s 0.447 -1 1 -1 h 25.866 C 86.172 0 90 3.828 90 8.534 V 34.4 C 90 34.952 89.553 35.4 89 35.4 z" style="stroke: none; stroke-width: 1; stroke-dasharray: none; stroke-linecap: butt; stroke-linejoin: miter; stroke-miterlimit: 10; fill: rgb(19,0,255); fill-rule: nonzero; opacity: 1;" transform=" matrix(1 0 0 1 0 0) " stroke-linecap="round" />
	<path d="M 50.148 77.924 c -0.147 0 -0.297 -0.032 -0.438 -0.102 c -12.051 -5.896 -18.162 -14.579 -18.162 -25.806 c 0 -7.708 6.271 -13.98 13.98 -13.98 c 5.889 0 11.18 3.724 13.165 9.266 c 0.808 2.256 2.807 3.714 5.093 3.714 h 0.302 c 1.746 0 3.327 -0.814 4.339 -2.233 c 1.027 -1.44 1.283 -3.231 0.702 -4.914 c -3.471 -10.056 -12.955 -16.813 -23.601 -16.813 c -13.763 0 -24.96 11.197 -24.96 24.96 c 0 0.553 -0.448 1 -1 1 s -1 -0.447 -1 -1 c 0 -14.866 12.094 -26.96 26.96 -26.96 c 11.498 0 21.742 7.298 25.491 18.16 c 0.794 2.301 0.443 4.753 -0.964 6.727 c -1.392 1.953 -3.567 3.073 -5.968 3.073 h -0.302 c -3.093 0 -5.896 -2.025 -6.976 -5.04 c -1.701 -4.749 -6.235 -7.94 -11.282 -7.94 c -6.606 0 -11.98 5.374 -11.98 11.98 c 0 10.398 5.733 18.477 17.041 24.009 c 0.496 0.243 0.701 0.842 0.459 1.338 C 50.874 77.718 50.519 77.924 50.148 77.924 z" style="stroke: none; stroke-width: 1; stroke-dasharray: none; stroke-linecap: butt; stroke-linejoin: miter; stroke-miterlimit: 10; fill: rgb(19,0,255); fill-rule: nonzero; opacity: 1;" transform=" matrix(1 0 0 1 0 0) " stroke-linecap="round" />
	<path d="M 26.058 53.017 c -0.552 0 -1 -0.447 -1 -1 c 0 -11.287 9.183 -20.47 20.47 -20.47 c 7.938 0 15.229 4.654 18.575 11.856 c 0.232 0.501 0.015 1.096 -0.486 1.328 c -0.502 0.233 -1.095 0.014 -1.328 -0.485 c -3.019 -6.499 -9.598 -10.699 -16.761 -10.699 c -10.185 0 -18.47 8.286 -18.47 18.47 C 27.058 52.569 26.61 53.017 26.058 53.017 z" style="stroke: none; stroke-width: 1; stroke-dasharray: none; stroke-linecap: butt; stroke-linejoin: miter; stroke-miterlimit: 10; fill: rgb(19,0,255); fill-rule: nonzero; opacity: 1;" transform=" matrix(1 0 0 1 0 0) " stroke-linecap="round" />
	<path d="M 63.942 72.487 c -11.498 0 -21.742 -7.298 -25.492 -18.16 c -0.794 -2.302 -0.443 -4.753 0.964 -6.728 c 1.392 -1.953 3.567 -3.073 5.968 -3.073 h 0.301 c 3.093 0 5.896 2.026 6.977 5.041 c 1.701 4.749 6.234 7.939 11.282 7.939 c 0.553 0 1 0.447 1 1 s -0.447 1 -1 1 c -5.89 0 -11.181 -3.724 -13.165 -9.266 c -0.809 -2.256 -2.809 -3.714 -5.094 -3.714 h -0.301 c -1.746 0 -3.328 0.813 -4.339 2.233 c -1.027 1.44 -1.283 3.231 -0.702 4.914 c 3.471 10.056 12.956 16.813 23.601 16.813 c 0.553 0 1 0.447 1 1 S 64.495 72.487 63.942 72.487 z" style="stroke: none; stroke-width: 1; stroke-dasharray: none; stroke-linecap: butt; stroke-linejoin: miter; stroke-miterlimit: 10; fill: rgb(19,0,255); fill-rule: nonzero; opacity: 1;" transform=" matrix(1 0 0 1 0 0) " stroke-linecap="round" />
	<path d="M 63.942 65.997 c -7.938 0 -15.229 -4.653 -18.575 -11.856 c -0.233 -0.501 -0.016 -1.096 0.485 -1.328 c 0.502 -0.232 1.095 -0.015 1.329 0.486 c 3.019 6.499 9.598 10.698 16.761 10.698 c 0.553 0 1 0.447 1 1 S 64.495 65.997 63.942 65.997 z" style="stroke: none; stroke-width: 1; stroke-dasharray: none; stroke-linecap: butt; stroke-linejoin: miter; stroke-miterlimit: 10; fill: rgb(19,0,255); fill-rule: nonzero; opacity: 1;" transform=" matrix(1 0 0 1 0 0) " stroke-linecap="round" />
	<path d="M 37.091 77.924 c -0.212 0 -0.427 -0.067 -0.608 -0.207 c -5.538 -4.249 -11.424 -14.7 -11.424 -25.7 c 0 -0.553 0.448 -1 1 -1 s 1 0.447 1 1 c 0 10.359 5.483 20.156 10.642 24.114 c 0.438 0.336 0.521 0.964 0.185 1.401 C 37.688 77.789 37.391 77.924 37.091 77.924 z" style="stroke: none; stroke-width: 1; stroke-dasharray: none; stroke-linecap: butt; stroke-linejoin: miter; stroke-miterlimit: 10; fill: rgb(19,0,255); fill-rule: nonzero; opacity: 1;" transform=" matrix(1 0 0 1 0 0) " stroke-linecap="round" />
	<path d="M 26.708 77.924 c -0.304 0 -0.603 -0.138 -0.8 -0.398 c -4.116 -5.462 -7.34 -16.667 -7.34 -25.509 c 0 -0.553 0.448 -1 1 -1 s 1 0.447 1 1 c 0 8.467 3.047 19.143 6.938 24.306 c 0.332 0.44 0.244 1.067 -0.197 1.4 C 27.128 77.858 26.917 77.924 26.708 77.924 z" style="stroke: none; stroke-width: 1; stroke-dasharray: none; stroke-linecap: butt; stroke-linejoin: miter; stroke-miterlimit: 10; fill: rgb(19,0,255); fill-rule: nonzero; opacity: 1;" transform=" matrix(1 0 0 1 0 0) " stroke-linecap="round" />
	<path d="M 70.019 31.741 c -0.279 0 -0.557 -0.116 -0.755 -0.344 c -5.984 -6.883 -14.636 -10.831 -23.735 -10.831 c -9.1 0 -17.751 3.948 -23.736 10.831 c -0.362 0.416 -0.994 0.462 -1.411 0.098 c -0.417 -0.362 -0.461 -0.994 -0.098 -1.411 c 6.364 -7.32 15.566 -11.518 25.245 -11.518 c 9.679 0 18.88 4.198 25.245 11.518 c 0.362 0.417 0.318 1.048 -0.099 1.411 C 70.485 31.66 70.252 31.741 70.019 31.741 z" style="stroke: none; stroke-width: 1; stroke-dasharray: none; stroke-linecap: butt; stroke-linejoin: miter; stroke-miterlimit: 10; fill: rgb(19,0,255); fill-rule: nonzero; opacity: 1;" transform=" matrix(1 0 0 1 0 0) " stroke-linecap="round" />
	<path d="M 25.904 19.388 c -0.344 0 -0.678 -0.177 -0.864 -0.495 c -0.279 -0.477 -0.118 -1.089 0.358 -1.368 c 6.094 -3.564 13.055 -5.448 20.13 -5.448 c 6.738 0 13.406 1.715 19.281 4.96 c 0.483 0.267 0.659 0.875 0.392 1.359 c -0.266 0.483 -0.873 0.659 -1.358 0.392 c -5.58 -3.082 -11.913 -4.711 -18.314 -4.711 c -6.721 0 -13.333 1.79 -19.121 5.175 C 26.249 19.344 26.075 19.388 25.904 19.388 z" style="stroke: none; stroke-width: 1; stroke-dasharray: none; stroke-linecap: butt; stroke-linejoin: miter; stroke-miterlimit: 10; fill: rgb(19,0,255); fill-rule: nonzero; opacity: 1;" transform=" matrix(1 0 0 1 0 0) " stroke-linecap="round" />
</g>
</svg>