<svg xmlns="http://www.w3.org/2000/svg" xmlns:xlink="http://www.w3.org/1999/xlink" version="1.1" width="256" height="256" viewBox="0 0 256 256" xml:space="preserve">

<defs>
</defs>
<g style="stroke: none; stroke-width: 0; stroke-dasharray: none; stroke-linecap: butt; stroke-linejoin: miter; stroke-miterlimit: 10; fill: none; fill-rule: nonzero; opacity: 1;" transform="translate(0 -2.842170943040401e-14) scale(2.81 2.81)" >
	<path d="M 71.326 90 H 18.674 C 8.361 90 0 81.639 0 71.326 V 18.674 C 0 8.361 8.361 0 18.674 0 h 52.652 C 81.639 0 90 8.361 90 18.674 v 52.652 C 90 81.639 81.639 90 71.326 90 z" style="stroke: none; stroke-width: 1; stroke-dasharray: none; stroke-linecap: butt; stroke-linejoin: miter; stroke-miterlimit: 10; fill: rgb(0,0,0); fill-rule: nonzero; opacity: 1;" transform=" matrix(1 0 0 1 0 0) " stroke-linecap="round" />
</g>
<g style="stroke: none; stroke-width: 0; stroke-dasharray: none; stroke-linecap: butt; stroke-linejoin: miter; stroke-miterlimit: 10; fill: none; fill-rule: nonzero; opacity: 1;" transform="translate(41.722334004024134 41.722334004024106) scale(1.92 1.92)" >
	<path d="M 54.358 67.236 c -0.824 0 -1.492 0.668 -1.492 1.492 c 0 1.622 -1.032 2.941 -2.302 2.941 H 39.436 c -1.269 0 -2.302 -1.319 -2.302 -2.941 V 55.726 c 0 -1.622 1.032 -2.941 2.302 -2.941 h 11.128 c 1.269 0 2.302 1.319 2.302 2.941 c 0 0.824 0.668 1.492 1.492 1.492 s 1.492 -0.668 1.492 -1.492 c 0 -3.267 -2.371 -5.924 -5.285 -5.924 h -4.073 v -3.004 c 0 -0.824 -0.667 -1.492 -1.491 -1.492 s -1.492 0.668 -1.492 1.492 v 3.004 h -4.072 c -2.914 0 -5.285 2.657 -5.285 5.924 v 13.002 c 0 3.267 2.371 5.924 5.285 5.924 h 4.072 v 3.005 c 0 0.824 0.668 1.492 1.492 1.492 s 1.491 -0.668 1.491 -1.492 v -3.005 h 4.073 c 2.914 0 5.285 -2.657 5.285 -5.924 C 55.849 67.904 55.181 67.236 54.358 67.236 z" style="stroke: none; stroke-width: 1; stroke-dasharray: none; stroke-linecap: butt; stroke-linejoin: miter; stroke-miterlimit: 10; fill: rgb(19,0,255); fill-rule: nonzero; opacity: 1;" transform=" matrix(1 0 0 1 0 0) " stroke-linecap="round" />
	<path d="M 60.604 39.251 V 15.604 C 60.604 7 53.604 0 45 0 S 29.396 7 29.396 15.604 v 3.414 c -2.659 0.667 -4.63 3.066 -4.63 5.931 c 0 3.381 2.741 6.122 6.122 6.122 c 3.381 0 6.122 -2.741 6.122 -6.122 c 0 -2.865 -1.971 -5.264 -4.63 -5.931 v -3.414 c 0 -6.959 5.662 -12.621 12.621 -12.621 s 12.621 5.662 12.621 12.621 V 37.49 c -3.788 -1.936 -8.075 -3.036 -12.621 -3.036 c -15.339 0 -27.773 12.434 -27.773 27.773 C 17.227 77.566 29.661 90 45 90 c 15.339 0 27.773 -12.434 27.773 -27.773 C 72.773 52.674 67.948 44.249 60.604 39.251 z M 34.026 24.949 c 0 1.73 -1.408 3.138 -3.138 3.138 c -1.73 0 -3.138 -1.408 -3.138 -3.138 c 0 -1.73 1.408 -3.138 3.138 -3.138 C 32.618 21.811 34.026 23.219 34.026 24.949 z M 45 87.017 c -13.669 0 -24.79 -11.121 -24.79 -24.79 S 31.331 37.437 45 37.437 s 24.79 11.121 24.79 24.79 S 58.669 87.017 45 87.017 z" style="stroke: none; stroke-width: 1; stroke-dasharray: none; stroke-linecap: butt; stroke-linejoin: miter; stroke-miterlimit: 10; fill: rgb(19,0,255); fill-rule: nonzero; opacity: 1;" transform=" matrix(1 0 0 1 0 0) " stroke-linecap="round" />
</g>
</svg>