<svg xmlns="http://www.w3.org/2000/svg" xmlns:xlink="http://www.w3.org/1999/xlink" version="1.1" width="256" height="256" viewBox="0 0 256 256" xml:space="preserve">

<defs>
</defs>
<g style="stroke: none; stroke-width: 0; stroke-dasharray: none; stroke-linecap: butt; stroke-linejoin: miter; stroke-miterlimit: 10; fill: none; fill-rule: nonzero; opacity: 1;" transform="translate(0 -2.842170943040401e-14) scale(2.81 2.81)" >
	<path d="M 71.326 90 H 18.674 C 8.361 90 0 81.639 0 71.326 V 18.674 C 0 8.361 8.361 0 18.674 0 h 52.652 C 81.639 0 90 8.361 90 18.674 v 52.652 C 90 81.639 81.639 90 71.326 90 z" style="stroke: none; stroke-width: 1; stroke-dasharray: none; stroke-linecap: butt; stroke-linejoin: miter; stroke-miterlimit: 10; fill: rgb(0,0,0); fill-rule: nonzero; opacity: 1;" transform=" matrix(1 0 0 1 0 0) " stroke-linecap="round" />
</g>
<g style="stroke: none; stroke-width: 0; stroke-dasharray: none; stroke-linecap: butt; stroke-linejoin: miter; stroke-miterlimit: 10; fill: none; fill-rule: nonzero; opacity: 1;" transform="translate(46.17984832069338 46.17984832069335) scale(1.82 1.82)" >
	<path d="M 32.809 42.364 c -0.28 0 -0.551 -0.117 -0.744 -0.332 c -3.579 -3.981 -4.43 -11.47 -2.266 -19.663 l -2.127 -1.594 c -0.363 -0.272 -0.498 -0.753 -0.328 -1.174 l 2.522 -6.257 c 0.17 -0.42 0.603 -0.674 1.051 -0.618 l 2.637 0.326 c 4.122 -7.407 9.93 -12.214 15.27 -12.601 c 0.394 -0.022 0.74 0.163 0.933 0.488 c 0.193 0.327 0.186 0.734 -0.021 1.053 c -2.863 4.423 -5.496 9.278 -7.829 14.438 L 44.002 18 c 0.363 0.272 0.498 0.754 0.328 1.174 l -2.522 6.257 c -0.17 0.42 -0.6 0.674 -1.051 0.618 l -2.596 -0.321 c -1.896 5.335 -3.366 10.655 -4.37 15.826 c -0.072 0.373 -0.349 0.672 -0.714 0.773 C 32.988 42.353 32.898 42.364 32.809 42.364 z M 29.488 19.637 l 2.056 1.541 c 0.331 0.248 0.475 0.674 0.363 1.072 c -1.847 6.531 -1.655 12.745 0.395 16.628 c 1.046 -4.79 2.471 -9.683 4.249 -14.581 c 0.159 -0.438 0.605 -0.71 1.063 -0.651 l 2.627 0.325 l 1.947 -4.831 l -2.119 -1.587 c -0.373 -0.28 -0.503 -0.78 -0.314 -1.207 c 2.117 -4.763 4.484 -9.279 7.052 -13.456 C 42.636 4.265 38.188 8.611 34.99 14.6 c -0.195 0.365 -0.59 0.576 -1.005 0.521 l -2.549 -0.315 L 29.488 19.637 z" style="stroke: none; stroke-width: 1; stroke-dasharray: none; stroke-linecap: butt; stroke-linejoin: miter; stroke-miterlimit: 10; fill: rgb(19,0,255); fill-rule: nonzero; opacity: 1;" transform=" matrix(1 0 0 1 0 0) " stroke-linecap="round" />
	<path d="M 85.623 43.825 c -0.543 0 -1.094 -0.102 -1.628 -0.317 L 40.508 25.979 c -0.246 -0.099 -0.442 -0.292 -0.546 -0.536 c -0.104 -0.244 -0.106 -0.52 -0.007 -0.766 l 2.52 -6.252 c 0.206 -0.512 0.79 -0.76 1.301 -0.554 l 43.487 17.528 c 2.234 0.9 3.32 3.451 2.42 5.687 v 0 C 88.996 42.789 87.354 43.825 85.623 43.825 z M 42.184 24.498 l 42.56 17.154 c 1.209 0.488 2.595 -0.1 3.084 -1.313 c 0.488 -1.212 -0.101 -2.596 -1.313 -3.084 L 43.956 20.101 L 42.184 24.498 z M 88.755 40.714 h 0.01 H 88.755 z" style="stroke: none; stroke-width: 1; stroke-dasharray: none; stroke-linecap: butt; stroke-linejoin: miter; stroke-miterlimit: 10; fill: rgb(19,0,255); fill-rule: nonzero; opacity: 1;" transform=" matrix(1 0 0 1 0 0) " stroke-linecap="round" />
	<path d="M 66.021 89.551 H 1 c -0.369 0 -0.707 -0.202 -0.881 -0.527 c -0.174 -0.324 -0.156 -0.719 0.048 -1.025 c 0.714 -1.075 1.591 -2.171 2.519 -3.33 c 2.164 -2.702 4.617 -5.765 4.782 -8.618 c 0.061 -1.04 0.055 -2.122 0.049 -3.169 c -0.013 -2.324 -0.025 -4.728 0.653 -7.055 c 0.944 -3.24 3.072 -5.856 5.129 -8.386 c 0.492 -0.604 0.983 -1.208 1.456 -1.817 c 3.514 -4.533 6.219 -9.84 7.824 -15.348 l 0.116 -0.403 c 0.494 -1.718 1.054 -3.666 2.495 -5.045 c 1.161 -1.112 2.762 -1.718 4.632 -1.754 c 0.535 -0.008 1.008 0.429 1.019 0.981 c 0.01 0.552 -0.429 1.008 -0.981 1.019 c -1.378 0.026 -2.484 0.429 -3.287 1.198 c -1.051 1.007 -1.511 2.606 -1.956 4.154 l -0.119 0.41 c -1.674 5.747 -4.497 11.285 -8.163 16.014 c -0.482 0.623 -0.983 1.238 -1.485 1.855 c -2.022 2.484 -3.93 4.831 -4.761 7.682 c -0.597 2.049 -0.585 4.204 -0.573 6.485 c 0.005 1.078 0.011 2.192 -0.052 3.295 c -0.203 3.491 -2.867 6.818 -5.218 9.754 c -0.448 0.559 -0.884 1.104 -1.29 1.632 h 63.064 c 0.553 0 1 0.447 1 1 C 67.021 89.104 66.573 89.551 66.021 89.551 z" style="stroke: none; stroke-width: 1; stroke-dasharray: none; stroke-linecap: butt; stroke-linejoin: miter; stroke-miterlimit: 10; fill: rgb(19,0,255); fill-rule: nonzero; opacity: 1;" transform=" matrix(1 0 0 1 0 0) " stroke-linecap="round" />
	<path d="M 52.473 55.947 c -0.123 0 -0.248 -0.022 -0.369 -0.07 c -4.118 -1.637 -6.927 -6.101 -9.644 -10.418 c -2.522 -4.008 -5.13 -8.152 -8.584 -9.562 c -0.512 -0.208 -0.757 -0.792 -0.548 -1.303 c 0.208 -0.512 0.79 -0.76 1.303 -0.548 c 4.05 1.651 6.832 6.073 9.522 10.348 c 2.545 4.045 5.177 8.229 8.689 9.624 c 0.514 0.204 0.764 0.786 0.561 1.299 C 53.246 55.709 52.87 55.947 52.473 55.947 z" style="stroke: none; stroke-width: 1; stroke-dasharray: none; stroke-linecap: butt; stroke-linejoin: miter; stroke-miterlimit: 10; fill: rgb(19,0,255); fill-rule: nonzero; opacity: 1;" transform=" matrix(1 0 0 1 0 0) " stroke-linecap="round" />
	<path d="M 66.021 83.563 c -8.022 0 -14.548 -6.526 -14.548 -14.548 s 6.526 -14.548 14.548 -14.548 c 2.776 0 5.477 0.785 7.81 2.272 c 0.466 0.297 0.603 0.915 0.307 1.381 c -0.298 0.468 -0.915 0.602 -1.381 0.307 c -2.012 -1.281 -4.341 -1.959 -6.735 -1.959 c -6.919 0 -12.548 5.629 -12.548 12.548 s 5.629 12.548 12.548 12.548 s 12.548 -5.629 12.548 -12.548 c 0 -2.924 -1.027 -5.771 -2.894 -8.016 c -0.353 -0.424 -0.294 -1.055 0.131 -1.408 c 0.424 -0.353 1.055 -0.294 1.408 0.131 c 2.163 2.603 3.355 5.903 3.355 9.293 C 80.569 77.036 74.042 83.563 66.021 83.563 z" style="stroke: none; stroke-width: 1; stroke-dasharray: none; stroke-linecap: butt; stroke-linejoin: miter; stroke-miterlimit: 10; fill: rgb(19,0,255); fill-rule: nonzero; opacity: 1;" transform=" matrix(1 0 0 1 0 0) " stroke-linecap="round" />
	<path d="M 66.021 89.551 c -11.323 0 -20.536 -9.213 -20.536 -20.536 s 9.213 -20.536 20.536 -20.536 s 20.535 9.213 20.535 20.536 S 77.344 89.551 66.021 89.551 z M 66.021 50.479 c -10.221 0 -18.536 8.315 -18.536 18.536 S 55.8 87.551 66.021 87.551 s 18.535 -8.316 18.535 -18.536 S 76.241 50.479 66.021 50.479 z" style="stroke: none; stroke-width: 1; stroke-dasharray: none; stroke-linecap: butt; stroke-linejoin: miter; stroke-miterlimit: 10; fill: rgb(19,0,255); fill-rule: nonzero; opacity: 1;" transform=" matrix(1 0 0 1 0 0) " stroke-linecap="round" />
	<path d="M 66.689 75.999 c -3.851 0 -6.983 -3.133 -6.983 -6.984 c 0 -3.852 3.133 -6.984 6.983 -6.984 c 1.737 0 3.402 0.642 4.689 1.808 c 0.409 0.371 0.44 1.004 0.069 1.413 c -0.371 0.41 -1.005 0.438 -1.413 0.069 c -0.917 -0.832 -2.105 -1.29 -3.346 -1.29 c -2.748 0 -4.983 2.236 -4.983 4.984 s 2.235 4.984 4.983 4.984 c 1.24 0 2.429 -0.458 3.346 -1.29 c 0.408 -0.369 1.042 -0.341 1.413 0.069 c 0.371 0.409 0.34 1.042 -0.069 1.413 C 70.091 75.358 68.426 75.999 66.689 75.999 z" style="stroke: none; stroke-width: 1; stroke-dasharray: none; stroke-linecap: butt; stroke-linejoin: miter; stroke-miterlimit: 10; fill: rgb(19,0,255); fill-rule: nonzero; opacity: 1;" transform=" matrix(1 0 0 1 0 0) " stroke-linecap="round" />
	<path d="M 66.689 64.03 c -0.553 0 -1 -0.447 -1 -1 v -2.295 c 0 -0.553 0.447 -1 1 -1 c 0.553 0 1 0.447 1 1 v 2.295 C 67.689 63.583 67.241 64.03 66.689 64.03 z" style="stroke: none; stroke-width: 1; stroke-dasharray: none; stroke-linecap: butt; stroke-linejoin: miter; stroke-miterlimit: 10; fill: rgb(19,0,255); fill-rule: nonzero; opacity: 1;" transform=" matrix(1 0 0 1 0 0) " stroke-linecap="round" />
	<path d="M 66.689 78.294 c -0.553 0 -1 -0.447 -1 -1 v -2.295 c 0 -0.553 0.447 -1 1 -1 c 0.553 0 1 0.447 1 1 v 2.295 C 67.689 77.847 67.241 78.294 66.689 78.294 z" style="stroke: none; stroke-width: 1; stroke-dasharray: none; stroke-linecap: butt; stroke-linejoin: miter; stroke-miterlimit: 10; fill: rgb(19,0,255); fill-rule: nonzero; opacity: 1;" transform=" matrix(1 0 0 1 0 0) " stroke-linecap="round" />
	<path d="M 17.109 77.108 c -0.02 0 -0.039 -0.001 -0.059 -0.002 c -0.551 -0.031 -0.973 -0.504 -0.941 -1.056 c 0.03 -0.515 0.026 -1.033 0.024 -1.552 c -0.006 -1.198 -0.013 -2.437 0.347 -3.671 c 0.5 -1.718 1.596 -3.065 2.657 -4.369 c 0.243 -0.299 0.486 -0.598 0.72 -0.899 c 1.719 -2.218 3.043 -4.814 3.827 -7.507 c 0.154 -0.531 0.709 -0.836 1.24 -0.681 c 0.53 0.154 0.835 0.709 0.68 1.239 c -0.866 2.975 -2.268 5.725 -4.166 8.173 c -0.244 0.314 -0.497 0.625 -0.75 0.937 c -0.978 1.202 -1.901 2.338 -2.288 3.666 c -0.278 0.955 -0.272 1.998 -0.267 3.103 c 0.003 0.56 0.005 1.121 -0.027 1.677 C 18.075 76.698 17.635 77.108 17.109 77.108 z" style="stroke: none; stroke-width: 1; stroke-dasharray: none; stroke-linecap: butt; stroke-linejoin: miter; stroke-miterlimit: 10; fill: rgb(19,0,255); fill-rule: nonzero; opacity: 1;" transform=" matrix(1 0 0 1 0 0) " stroke-linecap="round" />
	<path d="M 40.394 57.053 c -0.123 0 -0.248 -0.022 -0.369 -0.07 c -1.589 -0.632 -2.595 -2.23 -3.567 -3.775 c -0.794 -1.262 -1.616 -2.567 -2.583 -2.962 c -0.511 -0.208 -0.757 -0.792 -0.548 -1.304 c 0.208 -0.511 0.788 -0.759 1.304 -0.548 c 1.562 0.637 2.557 2.219 3.52 3.749 c 0.801 1.273 1.63 2.591 2.612 2.98 c 0.513 0.204 0.764 0.786 0.56 1.299 C 41.168 56.815 40.792 57.053 40.394 57.053 z" style="stroke: none; stroke-width: 1; stroke-dasharray: none; stroke-linecap: butt; stroke-linejoin: miter; stroke-miterlimit: 10; fill: rgb(19,0,255); fill-rule: nonzero; opacity: 1;" transform=" matrix(1 0 0 1 0 0) " stroke-linecap="round" />
</g>
</svg>