<svg xmlns="http://www.w3.org/2000/svg" xmlns:xlink="http://www.w3.org/1999/xlink" version="1.1" width="256" height="256" viewBox="0 0 256 256" xml:space="preserve">

<defs>
</defs>
<g style="stroke: none; stroke-width: 0; stroke-dasharray: none; stroke-linecap: butt; stroke-linejoin: miter; stroke-miterlimit: 10; fill: none; fill-rule: nonzero; opacity: 1;" transform="translate(0 -2.842170943040401e-14) scale(2.81 2.81)" >
	<path d="M 71.326 90 H 18.674 C 8.361 90 0 81.639 0 71.326 V 18.674 C 0 8.361 8.361 0 18.674 0 h 52.652 C 81.639 0 90 8.361 90 18.674 v 52.652 C 90 81.639 81.639 90 71.326 90 z" style="stroke: none; stroke-width: 1; stroke-dasharray: none; stroke-linecap: butt; stroke-linejoin: miter; stroke-miterlimit: 10; fill: rgb(0,0,0); fill-rule: nonzero; opacity: 1;" transform=" matrix(1 0 0 1 0 0) " stroke-linecap="round" />
</g>
<g style="stroke: none; stroke-width: 0; stroke-dasharray: none; stroke-linecap: butt; stroke-linejoin: miter; stroke-miterlimit: 10; fill: none; fill-rule: nonzero; opacity: 1;" transform="translate(41.722334004024134 41.722334004024106) scale(1.92 1.92)" >
	<path d="M 34.152 9.889 c 6.481 0 12.574 2.524 17.156 7.106 s 7.106 10.676 7.106 17.156 c 0 6.481 -2.524 12.574 -7.106 17.156 c -4.583 4.583 -10.676 7.106 -17.156 7.106 c -6.481 0 -12.574 -2.524 -17.156 -7.106 c -9.46 -9.46 -9.46 -24.853 0 -34.313 C 21.578 12.413 27.671 9.889 34.152 9.889 M 34.152 6.874 c -6.981 0 -13.962 2.663 -19.288 7.989 c -10.652 10.653 -10.652 27.924 0 38.576 c 5.326 5.326 12.307 7.989 19.288 7.989 s 13.962 -2.663 19.288 -7.989 c 10.653 -10.652 10.653 -27.924 0 -38.576 C 48.114 9.538 41.133 6.874 34.152 6.874 L 34.152 6.874 z" style="stroke: none; stroke-width: 1; stroke-dasharray: none; stroke-linecap: butt; stroke-linejoin: miter; stroke-miterlimit: 10; fill: rgb(19,0,255); fill-rule: nonzero; opacity: 1;" transform=" matrix(1 0 0 1 0 0) " stroke-linecap="round" />
	<path d="M 43.611 39.017 c -0.833 0 -1.507 0.675 -1.507 1.507 c 0 1.57 -0.995 2.846 -2.218 2.846 H 28.957 c -1.223 0 -2.218 -1.277 -2.218 -2.846 v -12.77 c 0 -1.57 0.995 -2.846 2.218 -2.846 h 10.929 c 1.223 0 2.218 1.277 2.218 2.846 c 0 0.833 0.675 1.507 1.507 1.507 s 1.507 -0.675 1.507 -1.507 c 0 -3.232 -2.347 -5.861 -5.233 -5.861 h -3.957 v -2.909 c 0 -0.833 -0.675 -1.507 -1.507 -1.507 s -1.507 0.675 -1.507 1.507 v 2.909 h -3.958 c -2.886 0 -5.233 2.629 -5.233 5.861 v 12.77 c 0 3.232 2.347 5.861 5.233 5.861 h 3.958 v 2.909 c 0 0.832 0.675 1.507 1.507 1.507 s 1.507 -0.675 1.507 -1.507 v -2.909 h 3.957 c 2.886 0 5.233 -2.629 5.233 -5.861 C 45.119 39.691 44.444 39.017 43.611 39.017 z" style="stroke: none; stroke-width: 1; stroke-dasharray: none; stroke-linecap: butt; stroke-linejoin: miter; stroke-miterlimit: 10; fill: rgb(19,0,255); fill-rule: nonzero; opacity: 1;" transform=" matrix(1 0 0 1 0 0) " stroke-linecap="round" />
	<path d="M 88.736 80.518 L 73.075 64.857 c -0.843 -0.843 -1.947 -1.264 -3.052 -1.264 c -1.1 0 -2.2 0.42 -3.042 1.256 l -7.641 -7.641 c 12.284 -13.4 11.941 -34.226 -1.039 -47.205 C 51.632 3.334 42.892 0 34.152 0 c -8.74 0 -17.48 3.334 -24.149 10.003 c -13.337 13.337 -13.337 34.961 0 48.298 c 6.669 6.669 15.409 10.003 24.149 10.003 c 8.272 0 16.541 -2.991 23.057 -8.964 l 7.641 7.641 c -1.677 1.686 -1.675 4.412 0.008 6.094 l 15.661 15.661 C 81.361 89.579 82.466 90 83.57 90 c 1.105 0 2.209 -0.421 3.052 -1.264 l 2.114 -2.114 C 90.421 84.937 90.421 82.204 88.736 80.518 z M 34.152 65.289 c -8.317 0 -16.136 -3.239 -22.017 -9.12 c -12.14 -12.14 -12.14 -31.894 0 -44.035 c 5.881 -5.881 13.7 -9.12 22.017 -9.12 s 16.136 3.239 22.017 9.12 c 12.14 12.14 12.14 31.894 0 44.035 C 50.288 62.05 42.469 65.289 34.152 65.289 z M 86.604 84.491 l -2.114 2.114 c -0.332 0.332 -0.719 0.381 -0.92 0.381 c -0.201 0 -0.589 -0.05 -0.92 -0.381 L 66.989 70.943 c -0.332 -0.332 -0.381 -0.719 -0.381 -0.92 c 0 -0.201 0.049 -0.589 0.381 -0.92 l 2.113 -2.113 c 0.332 -0.332 0.719 -0.381 0.92 -0.381 c 0.201 0 0.589 0.05 0.92 0.381 L 86.604 82.65 c 0.332 0.332 0.381 0.719 0.381 0.92 C 86.985 83.772 86.936 84.159 86.604 84.491 z" style="stroke: none; stroke-width: 1; stroke-dasharray: none; stroke-linecap: butt; stroke-linejoin: miter; stroke-miterlimit: 10; fill: rgb(19,0,255); fill-rule: nonzero; opacity: 1;" transform=" matrix(1 0 0 1 0 0) " stroke-linecap="round" />
</g>
</svg>