<svg xmlns="http://www.w3.org/2000/svg" xmlns:xlink="http://www.w3.org/1999/xlink" version="1.1" width="256" height="256" viewBox="0 0 256 256" xml:space="preserve">

<defs>
</defs>
<g style="stroke: none; stroke-width: 0; stroke-dasharray: none; stroke-linecap: butt; stroke-linejoin: miter; stroke-miterlimit: 10; fill: none; fill-rule: nonzero; opacity: 1;" transform="translate(0 -2.842170943040401e-14) scale(2.81 2.81)" >
	<path d="M 71.326 90 H 18.674 C 8.361 90 0 81.639 0 71.326 V 18.674 C 0 8.361 8.361 0 18.674 0 h 52.652 C 81.639 0 90 8.361 90 18.674 v 52.652 C 90 81.639 81.639 90 71.326 90 z" style="stroke: none; stroke-width: 1; stroke-dasharray: none; stroke-linecap: butt; stroke-linejoin: miter; stroke-miterlimit: 10; fill: rgb(0,0,0); fill-rule: nonzero; opacity: 1;" transform=" matrix(1 0 0 1 0 0) " stroke-linecap="round" />
</g>
<g style="stroke: none; stroke-width: 0; stroke-dasharray: none; stroke-linecap: butt; stroke-linejoin: miter; stroke-miterlimit: 10; fill: none; fill-rule: nonzero; opacity: 1;" transform="translate(41.722334004024134 41.722334004024106) scale(1.92 1.92)" >
	<path d="M 43.109 57.508 c -0.829 0 -1.5 0.672 -1.5 1.5 c 0 2.011 -1.303 3.646 -2.904 3.646 H 25.786 c -1.602 0 -2.904 -1.636 -2.904 -3.646 V 43.913 c 0 -2.01 1.303 -3.646 2.904 -3.646 h 12.919 c 1.602 0 2.904 1.636 2.904 3.646 c 0 0.829 0.671 1.5 1.5 1.5 s 1.5 -0.671 1.5 -1.5 c 0 -3.665 -2.648 -6.646 -5.904 -6.646 h -4.96 v -3.72 c 0 -0.829 -0.671 -1.5 -1.5 -1.5 s -1.5 0.671 -1.5 1.5 v 3.72 h -4.959 c -3.256 0 -5.904 2.981 -5.904 6.646 v 15.095 c 0 3.665 2.648 6.646 5.904 6.646 h 4.959 v 4.893 c 0 0.828 0.671 1.5 1.5 1.5 s 1.5 -0.672 1.5 -1.5 v -4.893 h 4.96 c 3.256 0 5.904 -2.981 5.904 -6.646 C 44.609 58.18 43.938 57.508 43.109 57.508 z" style="stroke: none; stroke-width: 1; stroke-dasharray: none; stroke-linecap: butt; stroke-linejoin: miter; stroke-miterlimit: 10; fill: rgb(19,0,255); fill-rule: nonzero; opacity: 1;" transform=" matrix(1 0 0 1 0 0) " stroke-linecap="round" />
	<path d="M 32.245 22.215 c 16.126 0 29.245 13.119 29.245 29.245 S 48.371 80.706 32.245 80.706 S 3 67.586 3 51.46 S 16.119 22.215 32.245 22.215 M 32.245 19.215 C 14.437 19.215 0 33.652 0 51.46 s 14.437 32.245 32.245 32.245 S 64.491 69.269 64.491 51.46 S 50.054 19.215 32.245 19.215 L 32.245 19.215 z" style="stroke: none; stroke-width: 1; stroke-dasharray: none; stroke-linecap: butt; stroke-linejoin: miter; stroke-miterlimit: 10; fill: rgb(19,0,255); fill-rule: nonzero; opacity: 1;" transform=" matrix(1 0 0 1 0 0) " stroke-linecap="round" />
	<path d="M 88.492 9.311 H 39.307 c -0.833 0 -1.508 -0.675 -1.508 -1.508 s 0.675 -1.508 1.508 -1.508 h 49.185 C 89.324 6.294 90 6.969 90 7.803 S 89.324 9.311 88.492 9.311 z" style="stroke: none; stroke-width: 1; stroke-dasharray: none; stroke-linecap: butt; stroke-linejoin: miter; stroke-miterlimit: 10; fill: rgb(19,0,255); fill-rule: nonzero; opacity: 1;" transform=" matrix(1 0 0 1 0 0) " stroke-linecap="round" />
	<path d="M 88.492 77.222 H 56.215 c -1.168 1.088 -2.412 2.095 -3.72 3.017 h 35.996 c 0.833 0 1.508 -0.676 1.508 -1.508 C 90 77.897 89.324 77.222 88.492 77.222 z" style="stroke: none; stroke-width: 1; stroke-dasharray: none; stroke-linecap: butt; stroke-linejoin: miter; stroke-miterlimit: 10; fill: rgb(19,0,255); fill-rule: nonzero; opacity: 1;" transform=" matrix(1 0 0 1 0 0) " stroke-linecap="round" />
	<path d="M 88.492 69.341 H 62.558 c -0.615 1.041 -1.279 2.049 -1.995 3.017 h 27.929 c 0.833 0 1.508 -0.676 1.508 -1.508 C 90 70.017 89.324 69.341 88.492 69.341 z" style="stroke: none; stroke-width: 1; stroke-dasharray: none; stroke-linecap: butt; stroke-linejoin: miter; stroke-miterlimit: 10; fill: rgb(19,0,255); fill-rule: nonzero; opacity: 1;" transform=" matrix(1 0 0 1 0 0) " stroke-linecap="round" />
	<path d="M 88.492 61.46 H 65.991 c -0.304 1.026 -0.654 2.032 -1.047 3.017 h 23.547 c 0.833 0 1.508 -0.676 1.508 -1.508 C 90 62.136 89.324 61.46 88.492 61.46 z" style="stroke: none; stroke-width: 1; stroke-dasharray: none; stroke-linecap: butt; stroke-linejoin: miter; stroke-miterlimit: 10; fill: rgb(19,0,255); fill-rule: nonzero; opacity: 1;" transform=" matrix(1 0 0 1 0 0) " stroke-linecap="round" />
	<path d="M 88.492 53.58 h -21.12 c -0.061 1.018 -0.163 2.024 -0.308 3.017 h 21.428 c 0.833 0 1.508 -0.676 1.508 -1.508 C 90 54.255 89.324 53.58 88.492 53.58 z" style="stroke: none; stroke-width: 1; stroke-dasharray: none; stroke-linecap: butt; stroke-linejoin: miter; stroke-miterlimit: 10; fill: rgb(19,0,255); fill-rule: nonzero; opacity: 1;" transform=" matrix(1 0 0 1 0 0) " stroke-linecap="round" />
	<path d="M 88.492 45.699 H 66.963 c 0.163 0.992 0.282 1.999 0.36 3.017 h 21.168 c 0.833 0 1.508 -0.676 1.508 -1.508 C 90 46.374 89.324 45.699 88.492 45.699 z" style="stroke: none; stroke-width: 1; stroke-dasharray: none; stroke-linecap: butt; stroke-linejoin: miter; stroke-miterlimit: 10; fill: rgb(19,0,255); fill-rule: nonzero; opacity: 1;" transform=" matrix(1 0 0 1 0 0) " stroke-linecap="round" />
	<path d="M 88.492 37.818 H 64.697 c 0.414 0.983 0.782 1.99 1.107 3.017 h 22.687 c 0.833 0 1.508 -0.675 1.508 -1.508 S 89.324 37.818 88.492 37.818 z" style="stroke: none; stroke-width: 1; stroke-dasharray: none; stroke-linecap: butt; stroke-linejoin: miter; stroke-miterlimit: 10; fill: rgb(19,0,255); fill-rule: nonzero; opacity: 1;" transform=" matrix(1 0 0 1 0 0) " stroke-linecap="round" />
	<path d="M 88.492 29.937 H 60.082 c 0.749 0.968 1.451 1.973 2.098 3.017 h 26.311 c 0.833 0 1.508 -0.675 1.508 -1.508 S 89.324 29.937 88.492 29.937 z" style="stroke: none; stroke-width: 1; stroke-dasharray: none; stroke-linecap: butt; stroke-linejoin: miter; stroke-miterlimit: 10; fill: rgb(19,0,255); fill-rule: nonzero; opacity: 1;" transform=" matrix(1 0 0 1 0 0) " stroke-linecap="round" />
	<path d="M 88.492 22.056 H 51.58 c 1.386 0.913 2.702 1.922 3.942 3.017 h 32.969 c 0.833 0 1.508 -0.675 1.508 -1.508 C 90 22.731 89.324 22.056 88.492 22.056 z" style="stroke: none; stroke-width: 1; stroke-dasharray: none; stroke-linecap: butt; stroke-linejoin: miter; stroke-miterlimit: 10; fill: rgb(19,0,255); fill-rule: nonzero; opacity: 1;" transform=" matrix(1 0 0 1 0 0) " stroke-linecap="round" />
	<path d="M 88.492 14.175 H 39.307 c -0.833 0 -1.508 0.675 -1.508 1.508 c 0 0.441 0.193 0.834 0.495 1.11 c 0.661 0.114 1.314 0.247 1.962 0.398 h 48.237 c 0.833 0 1.508 -0.675 1.508 -1.508 C 90 14.85 89.324 14.175 88.492 14.175 z" style="stroke: none; stroke-width: 1; stroke-dasharray: none; stroke-linecap: butt; stroke-linejoin: miter; stroke-miterlimit: 10; fill: rgb(19,0,255); fill-rule: nonzero; opacity: 1;" transform=" matrix(1 0 0 1 0 0) " stroke-linecap="round" />
</g>
</svg>