<svg xmlns="http://www.w3.org/2000/svg" width="64" height="64" viewBox="0 0 256 256" fill="none" id="my-svg">
  <defs>
    <linearGradient id="gradient1">
      <stop class="stop1" offset="0%" stop-color="#8f66ff"></stop>
      <stop class="stop2" offset="100%" stop-color="#3d12ff"></stop>
    </linearGradient>
  </defs>
  <rect id="backgr" width="256" height="256" fill="#0a0a0a" rx="60"></rect>
  <g id="group" transform="translate(0,0) scale(1)">
    <path d="M74.667 149.333C74.667 161.116 65.115 170.667 53.333 170.667C41.551 170.667 32.000 161.116 32.000 149.333V117.333C32.000 105.551 41.551 96.000 53.333 96.000C65.115 96.000 74.667 105.551 74.667 117.333V149.333Z" stroke="#00ff11" stroke-width="14" stroke-linecap="round" stroke-linejoin="round" id="secondary"></path>
    <path d="M192.000 149.333C192.000 161.116 182.449 170.667 170.667 170.667C158.884 170.667 149.333 161.116 149.333 149.333V117.333C149.333 105.551 158.884 96.000 170.667 96.000C182.449 96.000 192.000 105.551 192.000 117.333V149.333Z" stroke="#00ff11" stroke-width="14" stroke-linecap="round" stroke-linejoin="round" id="secondary"></path>
    <path d="M106.667 96.000V170.667M224.000 96.000V170.667" stroke="#1300ff" stroke-width="14" stroke-linecap="round" stroke-linejoin="round" id="primary"></path>
  </g>
</svg>