<svg xmlns="http://www.w3.org/2000/svg" width="64" height="64" viewBox="0 0 256 256" fill="none" id="my-svg">
  <defs>
    <linearGradient id="gradient1">
      <stop class="stop1" offset="0%" stop-color="#8f66ff"></stop>
      <stop class="stop2" offset="100%" stop-color="#3d12ff"></stop>
    </linearGradient>
  </defs>
  <rect id="backgr" width="256" height="256" fill="#0a0a0a" rx="60"></rect>
  <g id="group" transform="translate(0,0) scale(1)">
    <path d="M128.000 170.667V213.333M85.333 162.818V205.485M170.667 162.818V205.485" stroke="#00ff11" stroke-width="14" stroke-linecap="round" stroke-linejoin="round" id="secondary"></path>
    <path d="M213.333 112.000C213.333 144.401 175.129 170.667 128.000 170.667C80.872 170.667 42.667 144.401 42.667 112.000M213.333 112.000C213.333 79.599 175.129 53.333 128.000 53.333C80.872 53.333 42.667 79.599 42.667 112.000M213.333 112.000V154.667C213.333 187.068 175.129 213.333 128.000 213.333C80.872 213.333 42.667 187.068 42.667 154.667V112.000" stroke="#1300ff" stroke-width="14" stroke-linecap="round" stroke-linejoin="round" id="primary"></path>
  </g>
</svg>