<svg xmlns="http://www.w3.org/2000/svg" width="64" height="64" viewBox="0 0 256 256" fill="none" id="my-svg">
  <defs>
    <linearGradient id="gradient1">
      <stop class="stop1" offset="0%" stop-color="#8f66ff"></stop>
      <stop class="stop2" offset="100%" stop-color="#3d12ff"></stop>
    </linearGradient>
  </defs>
  <rect id="backgr" width="256" height="256" fill="#0a0a0a" rx="60"></rect>
  <g id="group" transform="translate(0,0) scale(1)">
    <path d="M154.666 117.333H170.667C194.230 117.333 213.333 136.436 213.333 160.000V192.000C213.333 203.782 203.782 213.333 192.000 213.333H64.000C52.218 213.333 42.667 203.782 42.667 192.000V160.000C42.667 136.436 61.769 117.333 85.333 117.333H101.334" stroke="#1300ff" stroke-width="14" stroke-linecap="round" stroke-linejoin="round" id="primary"></path>
    <path d="M170.667 82.526C170.667 110.431 146.963 128.000 128.000 128.000C109.037 128.000 85.333 110.431 85.333 82.526C85.333 54.621 101.818 32.000 128.000 32.000C154.182 32.000 170.667 54.621 170.667 82.526Z" stroke="#00ff11" stroke-width="14" stroke-linecap="round" stroke-linejoin="round" id="secondary"></path>
  </g>
</svg>